<svg width="40" height="41" viewBox="0 0 40 41" fill="none" xmlns="http://www.w3.org/2000/svg">
<path d="M39.9987 8.33631C39.9987 7.87503 39.8151 7.45641 39.52 7.15379L32.9629 0.48794C32.6652 0.186644 32.256 0 31.8022 0C31.3485 0 30.9393 0.186644 30.6416 0.48794L3.10285 28.4832C2.91138 28.6778 2.76712 28.9218 2.68844 29.1924L2.68581 29.2044L0.0629487 38.5366C0.0236058 38.6726 0 38.8299 0 38.9925C0 39.9137 0.733091 40.6603 1.63929 40.6617C1.80453 40.6617 1.96453 40.6363 2.11534 40.591L2.10354 40.5937L11.0055 37.9273C11.2757 37.8433 11.5078 37.7007 11.6967 37.5127L39.5135 9.51616C39.8138 9.21486 39.9987 8.79758 40 8.33497L39.9987 8.33631ZM9.68231 34.8504L4.03397 36.5408L5.72178 30.5362L25.2503 10.684L29.4718 14.9328L9.68231 34.8504ZM31.8022 12.5864L27.5689 8.32564L31.8022 4.02217L36.0369 8.32564L31.8022 12.5864Z" fill="white"/>
</svg>
