<svg width="60" height="60" viewBox="0 0 60 60" fill="none" xmlns="http://www.w3.org/2000/svg">
<rect width="59.5412" height="59.3448" rx="15" fill="#181831"/>
<path d="M48.4041 22.1612C47.5852 20.0098 46.2776 18.078 44.5845 16.5183C44.5845 16.5183 44.1225 16.1233 43.8985 15.9099L43.8615 15.8747L43.791 15.8076C43.5423 15.5649 43.2559 15.3642 42.9428 15.2134C42.6599 15.0804 42.3524 15.0077 42.0399 15C41.8298 15.002 41.6212 15.0353 41.4209 15.0988L40.9431 15.2539C40.6146 15.3586 40.3183 15.5456 40.0825 15.7971C39.9155 15.9711 39.7857 16.1773 39.701 16.4031C39.6163 16.6289 39.5785 16.8696 39.5899 17.1105C39.6013 17.3514 39.6616 17.5875 39.7672 17.8043C39.8728 18.0211 40.0215 18.2142 40.2042 18.3717C41.532 19.5232 43.1826 21.8191 44.1278 23.8383C44.4805 24.5718 44.5651 25.5241 44.7485 27.4215C44.7485 27.4462 44.983 30.0067 44.1648 31.7648C44.1418 31.817 44.1075 31.8634 44.0643 31.9006C43.9559 31.9788 43.8239 32.0174 43.6905 32.0099C43.6599 31.9664 43.64 31.9162 43.6323 31.8636C44.1629 29.1806 43.8804 26.4003 42.8211 23.8788C42.0693 22.1313 40.9584 20.5613 39.5605 19.271L39.5447 19.2534C39.2943 18.9518 38.979 18.7107 38.6224 18.548C38.3443 18.411 38.0384 18.3398 37.7283 18.3399C37.5188 18.3411 37.3106 18.3744 37.1111 18.4387L36.6333 18.5921C36.3438 18.6832 36.079 18.839 35.8587 19.0477C35.6384 19.2564 35.4685 19.5124 35.3618 19.7965C35.2452 20.1085 35.2211 20.4474 35.2924 20.7728C35.3637 21.0981 35.5274 21.3959 35.7639 21.6305C36.8095 22.6876 37.6539 23.9263 38.2556 25.286C39.1243 27.282 39.4515 29.4716 39.2043 31.6343L39.1955 31.7013V31.7684C39.2003 31.8509 39.1759 31.9326 39.1265 31.999C39.0772 32.0654 39.0061 32.1123 38.9257 32.1316C38.8804 32.1375 38.8344 32.1335 38.7909 32.1198C38.7473 32.1061 38.7073 32.083 38.6735 32.0523C38.6659 32.0169 38.6612 31.9809 38.6594 31.9447V31.9235C38.5977 31.257 38.5765 30.4352 38.5589 29.7087C38.5448 29.1497 38.5307 28.6665 38.5025 28.3226C38.4332 27.5205 38.2218 26.7371 37.8782 26.009C37.615 25.4469 37.3072 24.9067 36.9577 24.3937C36.762 24.1081 36.5698 23.8647 36.3652 23.5896C36.2153 23.3956 36.0531 23.184 35.8662 22.9283C35.8302 22.8779 35.7914 22.8296 35.7498 22.7837C35.4785 22.4731 35.1411 22.2272 34.7623 22.0643C34.4731 21.9354 34.1581 21.875 33.8418 21.8879C33.6259 21.8949 33.4127 21.9372 33.2105 22.0131L32.9283 22.1172C32.5965 22.2379 32.3026 22.4443 32.0762 22.7152C31.8498 22.9862 31.6991 23.3122 31.6393 23.6602C31.5458 24.2297 31.7944 24.6459 31.9761 24.9492C32.2745 25.4454 32.6019 25.9235 32.9565 26.3811L33.0182 26.4605C33.3218 26.8702 33.5647 27.3216 33.7395 27.8007C33.9158 28.2644 33.9917 28.8905 34.1292 30.1407C34.198 30.7826 34.1821 31.6696 34.0516 31.9535C33.9831 32.0811 33.9047 32.2032 33.8171 32.3185C33.8037 32.3372 33.7845 32.3509 33.7624 32.3573L33.6742 32.3891C33.5362 32.4433 33.3915 32.4783 33.244 32.4931C33.0516 32.5072 32.8584 32.482 32.6761 32.4191C32.5658 32.3423 32.4741 32.2417 32.4081 32.1246C32.2935 31.9059 32.3411 31.6731 32.4963 31.1071C32.662 30.504 32.8666 29.7545 32.6955 28.8146C32.5731 28.211 32.3502 27.6322 32.036 27.1023C31.7204 26.5116 31.0714 25.3019 29.7065 24.5524C29.4483 24.2935 29.1262 24.1072 28.773 24.0125C28.4197 23.9177 28.0477 23.9179 27.6945 24.0128L11.4252 28.9751C10.9303 29.1237 10.5116 29.4571 10.256 29.9062C10.1225 30.1396 10.039 30.3983 10.0107 30.6657C9.98249 30.9332 10.0102 31.2036 10.092 31.4598L12.4779 38.882C12.6442 39.3724 12.9951 39.7786 13.4561 40.0144C13.9171 40.2502 14.4518 40.2969 14.9467 40.1446L19.2001 38.8538C19.2202 38.8537 19.2401 38.8583 19.2581 38.8672C19.2762 38.876 19.2919 38.889 19.3041 38.9049L23.8996 43.7455C24.162 44.0134 24.4945 44.2019 24.8591 44.2896C25.2237 44.3772 25.6056 44.3604 25.961 44.241C26.0333 44.2163 26.1056 44.1899 26.1762 44.1581C26.7582 43.9181 27.2572 43.5129 27.6116 42.9925C28.384 41.8004 27.9749 40.6295 27.0826 38.0673L26.9909 37.8045C26.7881 37.2279 26.4231 36.1787 25.9505 34.8067C25.9505 34.7926 25.9505 34.7768 25.9399 34.7609C25.8457 34.5393 25.6706 34.3619 25.4503 34.2648C25.23 34.1677 24.981 34.1581 24.7539 34.2381C24.5267 34.3181 24.3386 34.4815 24.2278 34.6953C24.1169 34.909 24.0916 35.1569 24.1571 35.3887C24.1631 35.3989 24.1684 35.4095 24.1729 35.4204C24.6455 36.7906 25.0123 37.8398 25.2134 38.4182L25.3051 38.681C26.0422 40.7812 26.3296 41.6523 26.0351 42.1038C25.8854 42.3061 25.6811 42.4614 25.4461 42.5517C25.4268 42.559 25.4058 42.5603 25.3857 42.5556C25.3656 42.5509 25.3473 42.5403 25.3333 42.5252L20.7255 37.6864C20.4702 37.417 20.1445 37.2247 19.7854 37.1312C19.4263 37.0377 19.0482 37.0467 18.694 37.1574L14.4406 38.4464C14.4106 38.4552 14.3154 38.4147 14.2766 38.2948L11.8907 30.8814C11.8806 30.8527 11.8764 30.8224 11.8782 30.7921C11.88 30.7618 11.8879 30.7322 11.9013 30.705C11.9091 30.6905 11.9207 30.6783 11.9348 30.6697L28.183 25.7145C28.2566 25.7449 28.3236 25.7892 28.3805 25.845L28.488 25.9632L28.6326 26.0372C29.599 26.5292 30.0716 27.4127 30.3537 27.94C30.5857 28.3208 30.7515 28.7382 30.844 29.1744C30.948 29.7457 30.8175 30.2201 30.68 30.7226C30.5036 31.391 30.2885 32.1457 30.7223 32.9657C30.942 33.3701 31.2643 33.7095 31.6569 33.9497L31.7274 33.9938L31.8068 34.0255C32.286 34.218 32.803 34.2982 33.318 34.2601C33.6428 34.2333 33.9622 34.1609 34.2668 34.0449L34.3267 34.0255C34.7306 33.8928 35.0835 33.6384 35.3371 33.2972C35.5012 33.0809 35.6452 32.8502 35.7674 32.6077C36.173 31.726 36.0284 30.183 35.9967 29.885C35.8432 28.4884 35.7657 27.7866 35.5029 27.1182C35.2725 26.4999 34.9554 25.9175 34.5612 25.3883L34.4942 25.3001C34.1751 24.8938 33.8807 24.4686 33.6125 24.0269C33.5843 23.9793 33.5261 23.8806 33.4979 23.8224C33.5049 23.7982 33.5206 23.7775 33.542 23.7642L33.8312 23.6584C33.8643 23.6679 33.8967 23.6797 33.9282 23.6937C34.0637 23.7581 34.1839 23.8507 34.2809 23.9652L34.2932 23.9846C34.4907 24.2527 34.66 24.4731 34.8222 24.6759C35.0215 24.9351 35.1925 25.1591 35.3636 25.4077C35.6613 25.8458 35.9237 26.3069 36.1483 26.7867C36.4077 27.3358 36.5688 27.926 36.6244 28.5307C36.6491 28.8252 36.6615 29.3084 36.6738 29.8198C36.6932 30.5728 36.7161 31.4245 36.7831 32.1598C36.8044 32.5926 36.9861 33.0018 37.2928 33.3078C37.5407 33.5417 37.8395 33.7149 38.1657 33.8138C38.4919 33.9126 38.8365 33.9344 39.1726 33.8774C39.696 33.794 40.1733 33.5287 40.5204 33.1281C40.8675 32.7274 41.0621 32.2172 41.07 31.6872C41.3035 29.633 41.0729 27.5526 40.3954 25.5993C39.7178 23.6461 38.6106 21.8698 37.1552 20.4014C37.1377 20.3843 37.1259 20.362 37.1217 20.3379C37.1323 20.3132 37.1482 20.285 37.1676 20.2797L37.6543 20.1245C37.6858 20.1344 37.7164 20.1468 37.746 20.1615C37.8617 20.2178 37.9635 20.2991 38.044 20.3996C38.095 20.4616 38.1498 20.5205 38.208 20.5759C39.4351 21.701 40.412 23.0714 41.0753 24.5983C42.0108 26.826 42.2565 29.2831 41.7807 31.652C41.7302 32.0134 41.7847 32.3817 41.9375 32.7131C42.0904 33.0445 42.3353 33.325 42.643 33.5212C43.3748 33.9621 44.4946 33.8368 45.2476 33.2338C45.5188 33.0166 45.7361 32.7396 45.8824 32.4244C46.9034 30.2289 46.6354 27.3104 46.623 27.187C46.4202 25.1009 46.318 24.0534 45.8524 23.0606C44.7997 20.8281 43.0133 18.3558 41.5038 17.0473C41.4894 17.0357 41.4784 17.0204 41.4719 17.003C41.4654 16.9856 41.4636 16.9668 41.4668 16.9486C41.4716 16.9439 41.477 16.9398 41.4827 16.9362L41.9623 16.7846C41.9923 16.7919 42.0218 16.8013 42.0505 16.8128C42.1707 16.8725 42.2817 16.9491 42.3802 17.0403L42.9181 17.594L42.9604 17.5711C43.1367 17.7245 43.2831 17.8514 43.2937 17.8603C43.9566 18.4756 44.5529 19.1588 45.073 19.8988C45.7137 20.8035 46.238 21.7852 46.6336 22.8208C47.1133 24.0816 47.3637 25.7904 47.4906 27.0036C47.6923 28.973 47.7183 30.9564 47.5682 32.9305H47.5788C47.5595 33.0603 47.5722 33.1928 47.6158 33.3166C47.7055 33.542 47.8804 33.7228 48.1026 33.8199C48.3248 33.9169 48.5764 33.9224 48.8026 33.8351C48.9847 33.7749 49.1437 33.6599 49.258 33.5058C49.3722 33.3518 49.4361 33.1663 49.441 32.9745C49.5981 30.9048 49.5704 28.8251 49.3581 26.7602C49.1606 24.854 48.8396 23.3057 48.4041 22.1612Z" fill="url(#paint0_linear_395_75)"/>
<defs>
<linearGradient id="paint0_linear_395_75" x1="12.1565" y1="36.5438" x2="49.5229" y2="24.3506" gradientUnits="userSpaceOnUse">
<stop stop-color="#CBC9E6"/>
<stop offset="0.16" stop-color="#C8C6E4"/>
<stop offset="0.28" stop-color="#BEBDDF"/>
<stop offset="0.39" stop-color="#ADADD7"/>
<stop offset="0.5" stop-color="#9698CB"/>
<stop offset="0.51" stop-color="#9294C9"/>
<stop offset="0.92" stop-color="#5B6AB0"/>
</linearGradient>
</defs>
</svg>
