<svg width="15" height="15" viewBox="0 0 15 15" fill="none" xmlns="http://www.w3.org/2000/svg">
<path d="M10.4695 12.2224L10.0746 8.9831C9.95882 8.034 9.17196 7.32178 8.23916 7.32178H7.55989H6.88062C5.94781 7.32178 5.16094 8.034 5.04524 8.9831L4.65033 12.2224C4.55833 12.9771 5.13221 13.6436 5.87393 13.6436H7.55989H9.24583C9.98755 13.6436 10.5615 12.9771 10.4695 12.2224Z" stroke="black" stroke-linecap="round" stroke-linejoin="round"/>
<path d="M7.56014 4.79311C8.5817 4.79311 9.40984 3.944 9.40984 2.89656C9.40984 1.84912 8.5817 1 7.56014 1C6.53859 1 5.71045 1.84912 5.71045 2.89656C5.71045 3.944 6.53859 4.79311 7.56014 4.79311Z" stroke="black"/>
<path d="M2.62766 6.68951C3.3087 6.68951 3.86079 6.12343 3.86079 5.42514C3.86079 4.72684 3.3087 4.16077 2.62766 4.16077C1.94662 4.16077 1.39453 4.72684 1.39453 5.42514C1.39453 6.12343 1.94662 6.68951 2.62766 6.68951Z" stroke="black"/>
<path d="M12.4924 6.68951C13.1734 6.68951 13.7255 6.12343 13.7255 5.42514C13.7255 4.72684 13.1734 4.16077 12.4924 4.16077C11.8114 4.16077 11.2593 4.72684 11.2593 5.42514C11.2593 6.12343 11.8114 6.68951 12.4924 6.68951Z" stroke="black"/>
<path d="M2.62747 8.58606H2.43895C1.83616 8.58606 1.32171 9.03289 1.22261 9.64257L1.01708 10.9069C0.891815 11.6776 1.47144 12.3792 2.23344 12.3792H4.47716" stroke="black" stroke-linecap="round" stroke-linejoin="round"/>
<path d="M12.4928 8.58606H12.6812C13.2841 8.58606 13.7985 9.03289 13.8976 9.64257L14.1032 10.9069C14.2284 11.6776 13.6489 12.3792 12.8869 12.3792C12.1706 12.3792 11.3183 12.3792 10.6431 12.3792" stroke="black" stroke-linecap="round" stroke-linejoin="round"/>
</svg>
