<svg width="44" height="52" viewBox="0 0 44 52" fill="none" xmlns="http://www.w3.org/2000/svg">
<path d="M21.8386 37.4839C31.6372 37.4839 39.5806 29.5405 39.5806 19.7419C39.5806 9.94334 31.6372 2 21.8386 2C12.04 2 4.09668 9.94334 4.09668 19.7419C4.09668 29.5405 12.04 37.4839 21.8386 37.4839Z" stroke="#FFB800" stroke-width="3" stroke-miterlimit="10" stroke-linecap="round" stroke-linejoin="round"/>
<path d="M21.8392 31.0323C28.0746 31.0323 33.1295 25.9775 33.1295 19.742C33.1295 13.5065 28.0746 8.45166 21.8392 8.45166C15.6037 8.45166 10.5488 13.5065 10.5488 19.742C10.5488 25.9775 15.6037 31.0323 21.8392 31.0323Z" stroke="#FFB800" stroke-width="3" stroke-miterlimit="10" stroke-linecap="round" stroke-linejoin="round"/>
<path d="M22.1611 37.4838L27.9676 49.7419L33.6127 43.6129L41.9998 43.129L35.8708 30.5483" stroke="#FFB800" stroke-width="3" stroke-miterlimit="10" stroke-linecap="round" stroke-linejoin="round"/>
<path d="M7.80645 30.71L2 43.1293L10.2258 43.6132L15.871 49.7422L21.6774 37.4842" stroke="#FFB800" stroke-width="3" stroke-miterlimit="10" stroke-linecap="round" stroke-linejoin="round"/>
</svg>
