<svg width="500" height="306" viewBox="0 0 500 306" fill="none" xmlns="http://www.w3.org/2000/svg">
<g clip-path="url(#clip0_1255_153)">
<path d="M442.099 179.241L425.693 218.269L483.594 242.608L500 203.58L442.099 179.241Z" fill="#EBEBEB"/>
<path d="M499.993 204.126C499.749 204.25 499.494 204.349 499.232 204.423L497.026 205.184L488.878 207.793L461.856 216.162L461.635 216.23L461.521 216.025L461.255 215.53C455.929 205.701 451.121 196.808 447.599 190.303C445.895 187.108 444.511 184.499 443.522 182.635L442.434 180.535C442.297 180.292 442.182 180.038 442.091 179.775C442.258 179.992 442.405 180.224 442.533 180.467L443.712 182.521C444.746 184.362 446.184 186.941 447.949 190.128C451.509 196.61 456.378 205.473 461.749 215.233C461.848 215.401 461.939 215.576 462.023 215.728L461.688 215.591L488.756 207.344L496.965 204.918L499.201 204.279C499.46 204.206 499.725 204.155 499.993 204.126Z" fill="#E0E0E0"/>
<path d="M425.682 218.817C425.613 218.672 432.217 215.157 440.433 210.958C448.649 206.759 455.366 203.464 455.435 203.601C455.503 203.738 448.908 207.261 440.691 211.46C432.475 215.659 425.758 218.953 425.682 218.817Z" fill="#E0E0E0"/>
<path d="M474.887 211.209C475.04 211.163 477.109 218.284 479.513 227.101C481.917 235.918 483.735 243.115 483.583 243.153C483.431 243.191 481.361 236.078 478.965 227.253C476.569 218.429 474.712 211.247 474.887 211.209Z" fill="#E0E0E0"/>
<path d="M70.8919 250.49L58.6929 279.51L101.754 297.611L113.953 268.591L70.8919 250.49Z" fill="#F5F5F5"/>
<path d="M113.939 268.996C113.76 269.089 113.571 269.163 113.376 269.217L111.733 269.764L105.647 271.697L85.5476 277.95L85.3878 278.003L85.3041 277.851L85.0987 277.486L74.9806 258.726L71.9376 253.02L71.1312 251.499C71.0269 251.32 70.9403 251.131 70.8726 250.936C71.0005 251.097 71.1126 251.27 71.2073 251.453L72.0822 252.974C72.8429 254.351 73.9156 256.269 75.2317 258.619C77.8791 263.443 81.5003 270.031 85.4943 277.319L85.6997 277.684L85.4487 277.585L105.578 271.453L111.664 269.643L113.33 269.171C113.53 269.101 113.733 269.042 113.939 268.996Z" fill="#E0E0E0"/>
<path d="M58.6772 279.959C58.6239 279.852 63.5384 277.235 69.6473 274.116C75.7562 270.997 80.7544 268.54 80.8076 268.646C80.8609 268.753 75.954 271.37 69.8375 274.489C63.721 277.608 58.7304 280.027 58.6772 279.959Z" fill="#E0E0E0"/>
<path d="M95.2698 274.26C95.3839 274.26 96.9283 279.525 98.7084 286.083C100.489 292.64 101.85 297.988 101.751 298.019C101.653 298.049 100.101 292.762 98.3129 286.197C96.5251 279.631 95.1557 274.291 95.2698 274.26Z" fill="#E0E0E0"/>
<path d="M51.072 155.232L0.00244141 175.473L19.587 224.887L70.6566 204.647L51.072 155.232Z" fill="#F5F5F5"/>
<path d="M21.8643 219.09L25.9191 188.067L43.911 199.737L47.517 188.325L65.022 201.989L21.8643 219.09Z" fill="#E0E0E0"/>
<path d="M40.4346 176.587C40.7246 177.314 40.7924 178.111 40.6292 178.877C40.466 179.643 40.0793 180.343 39.5179 180.889C38.9565 181.435 38.2458 181.802 37.4758 181.943C36.7057 182.085 35.9109 181.995 35.1921 181.684C34.4732 181.374 33.8626 180.857 33.4377 180.2C33.0127 179.542 32.7924 178.773 32.8047 177.99C32.817 177.207 33.0614 176.446 33.5068 175.802C33.9523 175.158 34.5788 174.661 35.3071 174.373C36.2807 173.989 37.3671 174.006 38.3282 174.421C39.2893 174.836 40.0467 175.615 40.4346 176.587Z" fill="#E0E0E0"/>
<g opacity="0.3">
<path d="M65.0752 202.126C65.0375 202.063 65.0069 201.997 64.9839 201.928L64.7405 201.357L63.8352 199.143C63.0744 197.188 61.9029 194.366 60.4574 190.775C57.5666 183.563 53.4585 173.278 48.5288 160.984L48.8178 161.105L5.68291 178.238C5.68291 178.314 5.95679 177.599 5.82746 177.911V177.956V178.048L5.89593 178.223L6.03286 178.572L6.31434 179.28L6.8697 180.68C7.24247 181.616 7.63045 182.544 7.97279 183.472C8.73355 185.32 9.43345 187.154 10.1562 188.972C11.5864 192.601 12.9938 196.161 14.3632 199.623C17.1019 206.546 19.6885 213.088 22.062 219.113L21.7653 218.984L53.0096 206.728L61.8344 203.297L64.1775 202.399L64.7861 202.171L65.0068 202.095L64.8242 202.186L64.246 202.422L61.9637 203.358L53.2987 206.926L22.0012 219.44L21.7957 219.524L21.7045 219.311C19.3157 213.293 16.7139 206.759 13.9676 199.836C12.5906 196.382 11.1832 192.821 9.73775 189.185C8.97699 187.374 8.29231 185.533 7.55438 183.685C7.18921 182.757 6.79362 181.829 6.45128 180.893L5.89593 179.539L5.61445 178.778L5.47751 178.428L5.40904 178.253L5.371 178.162V178.124C5.24168 178.428 5.54598 177.705 5.52316 177.774L48.6885 160.687L48.9015 160.603L48.9852 160.816C53.8464 173.224 57.9013 183.563 60.7541 190.828C62.1463 194.411 63.2418 197.241 64.0026 199.197C64.3677 200.14 64.6416 200.87 64.847 201.395L65.0524 201.951C65.0627 202.008 65.0703 202.067 65.0752 202.126Z" fill="#E0E0E0"/>
</g>
<path d="M343.65 290.495L340.896 288.494C339.324 287.361 338.216 285.696 337.777 283.808L335.837 275.44C335.223 272.802 333.684 270.472 331.5 268.871C329.316 267.271 326.631 266.505 323.931 266.714L323.17 263.465C323.125 263.27 323.042 263.085 322.926 262.921C322.809 262.758 322.661 262.619 322.491 262.513C322.32 262.407 322.131 262.336 321.933 262.303C321.734 262.271 321.532 262.278 321.337 262.324C321.141 262.369 320.956 262.452 320.793 262.569C320.629 262.685 320.49 262.833 320.384 263.003C320.278 263.174 320.207 263.364 320.175 263.562C320.142 263.76 320.149 263.962 320.195 264.158L320.956 267.345C318.343 268.287 316.166 270.155 314.838 272.594C313.51 275.034 313.124 277.877 313.752 280.582L315.623 288.616C316.032 290.365 315.839 292.201 315.076 293.827L313.349 297.532L324.6 294.915C325.034 295.565 325.621 296.098 326.309 296.468C326.997 296.839 327.765 297.035 328.546 297.04C329.327 297.046 330.098 296.86 330.79 296.498C331.483 296.137 332.077 295.612 332.52 294.968C332.933 294.345 333.193 293.634 333.28 292.892L343.65 290.495Z" fill="#EBEBEB"/>
<path d="M350.184 62.1767L398.858 93.9839L378.34 127.807L328.495 94.0524L350.184 62.1767Z" fill="#F5F5F5"/>
<path d="M350.184 62.1767L385.422 58.8446C386.148 58.7757 386.874 58.9591 387.48 59.3638C388.085 59.7684 388.533 60.3697 388.747 61.066L398.865 93.9839" fill="#FF725E"/>
<path d="M350.184 62.1767L385.422 58.8446C386.148 58.7757 386.874 58.9591 387.48 59.3638C388.085 59.7684 388.533 60.3697 388.747 61.066L398.865 93.9839" fill="#E0E0E0"/>
<path d="M328.495 94.0524C328.495 93.9535 335.159 92.2951 343.429 90.3399C351.698 88.3848 358.431 86.8861 358.454 86.985C358.477 87.0839 351.79 88.7423 343.512 90.6899C335.235 92.6374 328.518 94.1437 328.495 94.0524Z" fill="#E0E0E0"/>
<path d="M378.34 127.807C378.241 127.807 377.221 121.166 376.057 112.95C374.894 104.733 374.034 98.0464 374.133 98.0312C374.232 98.0159 375.251 104.673 376.415 112.896C377.579 121.12 378.439 127.807 378.34 127.807Z" fill="#E0E0E0"/>
<path d="M350.184 62.1767L361.633 97.2628L398.857 93.9839L350.184 62.1767Z" fill="#E0E0E0"/>
<path d="M351.424 65.5925L361.398 50.4153L404.145 78.0765L394.057 94.311L361.801 97.0117L351.424 65.5925Z" fill="#FAFAFA"/>
<path d="M351.424 65.5925C351.424 65.5925 351.508 65.7903 351.637 66.1706C351.767 66.551 351.964 67.114 352.208 67.8291C352.71 69.2974 353.425 71.4351 354.346 74.151C356.171 79.6284 358.781 87.4566 361.953 96.9737L361.786 96.8596L394.072 94.1133L393.928 94.2045L399.923 84.5505C401.307 82.319 402.671 80.1255 404.015 77.97L404.076 78.2362L361.36 50.5219H361.535L354.125 61.6213L352.139 64.5883L351.615 65.349L351.424 65.6001L351.576 65.3414L352.063 64.5807L353.988 61.5909L361.291 50.3621L361.36 50.21L361.466 50.2784L404.251 77.8787L404.411 77.9852L404.312 78.145C402.973 80.3055 401.609 82.499 400.219 84.7255L394.217 94.3795L394.171 94.4632H394.072L361.809 97.1335H361.687L361.641 97.0117C358.522 87.4718 355.958 79.6056 354.155 74.1053L352.117 67.7758L351.592 66.1859C351.47 65.7903 351.424 65.5925 351.424 65.5925Z" fill="#E0E0E0"/>
<path d="M392.384 81.2412C392.323 81.3325 385.757 77.1408 377.731 71.8763C369.705 66.6119 363.231 62.2756 363.277 62.1843C363.323 62.093 369.896 66.2847 377.929 71.5416C385.963 76.7984 392.445 81.1499 392.384 81.2412Z" fill="#E0E0E0"/>
<path d="M389.546 85.5167C389.485 85.608 382.927 81.4086 374.894 76.1518C366.86 70.895 360.394 66.5434 360.439 66.4521C360.485 66.3609 367.058 70.5526 375.091 75.8171C383.125 81.0815 389.607 85.4254 389.546 85.5167Z" fill="#E0E0E0"/>
<path d="M386.275 90.4388C386.214 90.5301 379.656 86.3383 371.623 81.0739C363.589 75.8094 357.123 71.4731 357.168 71.3818C357.214 71.2905 363.787 75.4823 371.82 80.7468C379.854 86.0112 386.336 90.3475 386.275 90.4388Z" fill="#E0E0E0"/>
<path d="M383.003 95.3609C382.943 95.4522 376.681 91.4582 369.021 86.4372C361.36 81.4162 355.19 77.2701 355.251 77.1788C355.312 77.0875 361.573 81.0891 369.241 86.1101C376.91 91.1311 383.064 95.2696 383.003 95.3609Z" fill="#E0E0E0"/>
<path d="M374.711 96.0837C374.462 95.9946 374.227 95.8717 374.011 95.7185L372.178 94.5926L366.183 90.7888C363.847 89.2673 361.755 87.9055 360.257 86.8785C359.496 86.3688 358.903 85.9504 358.492 85.6537C358.266 85.5163 358.059 85.3501 357.875 85.1592C358.124 85.25 358.359 85.3727 358.575 85.5243L360.409 86.6503L366.396 90.454C368.731 91.9756 370.824 93.3373 372.33 94.3567C373.091 94.874 373.684 95.2925 374.095 95.5892C374.321 95.7265 374.528 95.8927 374.711 96.0837Z" fill="#E0E0E0"/>
<path d="M366.495 96.6162C365.363 96.1038 364.289 95.4712 363.292 94.7295C362.225 94.099 361.228 93.3569 360.317 92.5157C361.446 93.0292 362.518 93.6617 363.513 94.4024C364.581 95.0343 365.581 95.7763 366.495 96.6162Z" fill="#E0E0E0"/>
<path d="M180.193 90.6594L172.692 101.797L169.771 100.595L148.074 114.289L143.852 102.816C143.852 102.816 156.13 99.1799 158.793 95.2772C161.455 91.3745 159.067 90.1269 159.067 90.1269L165.313 84.5353L180.193 90.6594Z" fill="#EBEBEB"/>
<path d="M175.218 65.486C175.218 65.486 166.591 62.4429 155.56 48.9775C144.529 35.5121 140.573 18.8744 139.036 18.7679C137.5 18.6614 131.208 14.7739 115.232 40.8298C99.2564 66.8858 103.463 73.8771 106.004 74.1282C108.545 74.3792 126.233 71.6557 136.785 74.1282C147.336 76.6006 160.421 83.843 160.421 83.843L175.218 65.486Z" fill="#EBEBEB"/>
<path d="M192.206 83.8126L188.493 89.1988L186.827 91.6104C185.731 93.2047 184.064 94.3171 182.171 94.7177C180.278 95.1184 178.304 94.7767 176.656 93.7633L158.458 84.8701L172.54 60.9443L190.304 73.3294C191.942 74.4709 193.061 76.2143 193.418 78.1786C193.774 80.143 193.338 82.1685 192.206 83.8126Z" fill="#E0E0E0"/>
<path d="M116.191 41.4461C107.663 55.5809 103.258 68.5518 106.362 70.4233C109.466 72.2948 118.899 62.3821 127.435 48.2396C135.97 34.0971 140.368 21.1414 137.264 19.2624C134.16 17.3833 124.764 27.3188 116.191 41.4461Z" fill="#E0E0E0"/>
<path d="M188.12 84.3299C188.022 84.4897 185.572 83.1812 182.651 81.4162C179.729 79.6513 177.424 78.0841 177.523 77.9243C177.622 77.7646 180.064 79.0731 182.993 80.8456C185.922 82.6182 188.212 84.1778 188.12 84.3299Z" fill="#EBEBEB"/>
<path d="M190.136 80.9141C190.037 81.0663 187.854 79.811 185.206 78.107C182.559 76.4029 180.535 74.8889 180.642 74.7368C180.748 74.5846 182.924 75.8399 185.571 77.544C188.219 79.2481 190.235 80.762 190.136 80.9141Z" fill="#EBEBEB"/>
<path d="M185.671 87.875C185.633 87.9587 185.039 87.7457 184.096 87.3273C183.632 87.1219 183.077 86.8632 182.46 86.5665C181.844 86.2698 181.236 85.8514 180.566 85.4482C177.911 83.805 175.91 82.2683 176.002 82.1237C176.093 81.9792 178.284 83.2496 180.916 84.8776C181.578 85.2809 182.186 85.7069 182.765 86.034C183.343 86.3611 183.875 86.6578 184.286 86.9165C185.184 87.4262 185.709 87.7914 185.671 87.875Z" fill="#EBEBEB"/>
<path d="M130.341 39.7724C130.341 39.7724 123.212 34.0743 117.758 43.9794C112.303 53.8845 120.2 56.5623 120.2 56.5623C124.356 51.4724 127.77 45.8197 130.341 39.7724Z" fill="#FAFAFA"/>
<path d="M140.018 28.3534C139.894 29.0195 139.714 29.6736 139.478 30.3085C139.082 31.5486 138.519 33.3516 137.751 35.5578C137.294 36.638 136.787 37.8096 136.229 39.0725C135.963 39.7039 135.681 40.3581 135.392 41.0276C135.248 41.3699 135.096 41.7047 134.951 42.0546C134.806 42.4046 134.601 42.7241 134.419 43.0664C133.698 44.4358 132.938 45.8635 132.136 47.3495L131.535 48.4754C131.337 48.8482 131.086 49.2362 130.858 49.5709C130.386 50.3317 129.915 51.0468 129.428 51.7923C128.941 52.5379 128.469 53.3138 127.998 54.0137C127.754 54.3789 127.549 54.7745 127.283 55.094L126.522 56.1058C125.502 57.4371 124.513 58.7228 123.578 59.9552C123.334 60.2595 123.114 60.5715 122.87 60.8529L122.109 61.6822L120.679 63.2645L118.1 66.0869C116.419 67.6998 115.012 68.955 114.045 69.8299C113.58 70.3103 113.071 70.7459 112.524 71.1308C112.939 70.5857 113.4 70.0768 113.901 69.6092L117.804 65.7066L120.306 62.8537L121.721 61.3018L122.482 60.4726C122.726 60.1835 122.939 59.8716 123.175 59.5673L126.073 55.7178L126.834 54.7136C127.092 54.3789 127.305 53.9985 127.541 53.641C128.013 52.8802 128.485 52.1803 128.964 51.4348L130.379 49.2286C130.607 48.8634 130.866 48.5135 131.064 48.1407C131.261 47.7679 131.459 47.3799 131.665 47.03L133.947 42.7926C134.129 42.4578 134.327 42.1307 134.487 41.7884L134.936 40.7842C135.233 40.1147 135.522 39.4757 135.803 38.8518L137.37 35.3904C138.169 33.2298 138.823 31.4725 139.287 30.2249C139.477 29.5813 139.721 28.9552 140.018 28.3534Z" fill="#E0E0E0"/>
<path d="M98.7922 48.8634C98.7922 48.97 93.2006 48.7874 86.3082 48.445C79.4157 48.1027 73.8394 47.7451 73.8394 47.6386C73.8394 47.5321 79.4385 47.7147 86.331 48.0494C93.2235 48.3842 98.7998 48.7493 98.7922 48.8634Z" fill="#EBEBEB"/>
<path d="M104.224 32.5528C104.17 32.6517 97.6964 29.5098 89.7694 25.4777C81.8423 21.4457 75.4139 18.1516 75.4671 18.0527C75.5204 17.9538 81.9944 21.0958 89.9215 25.1278C97.8486 29.1598 104.277 32.4539 104.224 32.5528Z" fill="#EBEBEB"/>
<path d="M114 22.062C113.893 22.062 112.478 17.1703 110.865 11.0842C109.253 4.99817 108.028 0 108.119 0C108.21 0 109.641 4.88406 111.246 10.9777C112.851 17.0714 114.114 22.062 114 22.062Z" fill="#EBEBEB"/>
<path d="M332.497 35.8697C331.919 34.0558 330.798 32.4627 329.286 31.3052C327.85 30.1182 326.079 29.4106 324.22 29.2815C322.642 29.2141 321.085 29.6666 319.789 30.5695C318.493 31.4725 317.529 32.776 317.046 34.2797C316.366 33.4615 315.51 32.8064 314.543 32.3626C313.646 31.9564 312.676 31.7356 311.692 31.7134C310.708 31.6911 309.729 31.868 308.814 32.2333C307.105 32.9789 305.673 34.243 304.722 35.8469C303.689 37.4432 303.171 39.3179 303.238 41.2178C303.369 43.6395 304.276 45.9548 305.825 47.8212C307.568 49.6828 309.73 51.1015 312.131 51.9597C316.042 53.4812 321.169 55.3451 321.169 55.3451C321.169 55.3451 324.6 51.7163 327.773 48.9699C329.753 47.3577 331.318 45.2942 332.337 42.9523C333.146 40.6693 333.202 38.1869 332.497 35.8697Z" fill="#EBEBEB"/>
<path d="M298.369 15.7324C298.398 14.6064 298.079 13.4989 297.456 12.5601C296.878 11.6209 296.022 10.8845 295.007 10.4528C294.136 10.1078 293.175 10.0602 292.274 10.3174C291.373 10.5747 290.582 11.1224 290.024 11.8754C289.793 11.2996 289.44 10.7806 288.989 10.3539C288.567 9.94605 288.068 9.62741 287.52 9.41697C286.972 9.20653 286.388 9.10861 285.802 9.12906C284.703 9.22373 283.661 9.65701 282.82 10.3691C281.932 11.06 281.281 12.0088 280.956 13.085C280.557 14.4662 280.616 15.9393 281.123 17.2844C281.738 18.6624 282.675 19.8728 283.854 20.8143C285.756 22.4195 288.274 24.4507 288.274 24.4507C288.274 24.4507 290.891 23.0737 293.196 22.1684C294.611 21.6416 295.881 20.7864 296.901 19.6732C297.8 18.5508 298.315 17.1694 298.369 15.7324Z" fill="#EBEBEB"/>
<path d="M157.043 264.363C156.585 263.333 155.819 262.47 154.852 261.891C153.926 261.29 152.836 260.992 151.733 261.039C151.146 261.08 150.574 261.24 150.051 261.51C149.527 261.779 149.065 262.152 148.69 262.606C148.258 263.148 147.958 263.784 147.815 264.462C147.161 263.839 146.325 263.44 145.429 263.324C144.533 263.208 143.624 263.38 142.832 263.815C141.881 264.371 141.127 265.209 140.672 266.212C140.17 267.221 139.989 268.36 140.154 269.475C140.395 270.889 141.08 272.19 142.109 273.188C143.26 274.166 144.626 274.857 146.096 275.204C148.507 275.835 151.649 276.588 151.649 276.588C151.649 276.588 153.422 274.222 155.103 272.389C156.16 271.306 156.942 269.986 157.385 268.54C157.722 267.147 157.602 265.683 157.043 264.363Z" fill="#EBEBEB"/>
<path d="M456.363 118.206C456.319 116.863 456.169 115.525 455.915 114.205C455.58 112.667 455.018 111.188 454.248 109.815C453.241 107.996 451.896 106.384 450.285 105.068C448.192 103.354 445.702 102.193 443.044 101.69C440.386 101.188 437.644 101.36 435.07 102.192C433.584 102.655 432.178 103.343 430.901 104.231C430.237 104.694 429.607 105.203 429.014 105.753C428.421 106.315 427.866 106.917 427.356 107.556C425.211 110.238 423.981 113.536 423.844 116.967C423.707 120.398 424.671 123.784 426.595 126.628C427.059 127.305 427.568 127.95 428.116 128.56C428.67 129.142 429.262 129.686 429.889 130.188C431.092 131.173 432.439 131.969 433.883 132.547C437.365 133.972 441.234 134.145 444.829 133.035C448.424 131.925 451.522 129.601 453.594 126.461C454.469 125.154 455.141 123.723 455.587 122.216C455.944 120.921 456.198 119.601 456.348 118.267C456.358 118.356 456.358 118.445 456.348 118.534C456.348 118.739 456.348 118.99 456.348 119.294C456.331 119.719 456.277 120.141 456.188 120.557C456.109 121.132 455.984 121.699 455.816 122.254C455.394 123.793 454.737 125.258 453.868 126.598C452.603 128.575 450.93 130.26 448.963 131.54C446.995 132.82 444.777 133.667 442.457 134.023C439.519 134.462 436.516 134.108 433.761 132.996C432.272 132.403 430.881 131.588 429.638 130.576C428.993 130.059 428.383 129.5 427.812 128.903C427.262 128.275 426.754 127.612 426.291 126.917C424.298 123.991 423.296 120.504 423.433 116.967C423.57 113.429 424.838 110.03 427.051 107.267C427.575 106.609 428.145 105.989 428.756 105.41C429.369 104.856 430.023 104.348 430.711 103.889C432.026 102.979 433.473 102.276 435.001 101.805C437.833 100.906 440.854 100.783 443.75 101.447C446.039 101.98 448.188 102.996 450.054 104.426C451.919 105.856 453.458 107.667 454.568 109.739C455.331 111.141 455.873 112.652 456.173 114.22C456.297 114.786 456.378 115.361 456.417 115.939C456.469 116.361 456.487 116.786 456.47 117.21C456.47 117.529 456.47 117.788 456.47 117.971C456.443 118.053 456.407 118.132 456.363 118.206Z" fill="#E0E0E0"/>
<path d="M439.915 134.532C437.742 134.548 435.587 134.129 433.578 133.3C432.054 132.699 430.632 131.865 429.364 130.827C428.826 130.408 428.318 129.953 427.842 129.466L427.5 129.131L427.211 128.789C426.729 128.251 426.287 127.678 425.887 127.077C423.849 124.087 422.822 120.522 422.959 116.906C423.096 113.29 424.389 109.813 426.648 106.985C427.091 106.417 427.574 105.881 428.093 105.38L428.382 105.099L428.763 104.771C429.276 104.313 429.823 103.894 430.398 103.516C431.742 102.582 433.223 101.863 434.788 101.386C437.683 100.474 440.768 100.348 443.727 101.021C446.068 101.568 448.266 102.608 450.175 104.07C452.083 105.533 453.658 107.385 454.796 109.503C455.57 110.934 456.124 112.472 456.439 114.068C456.555 114.589 456.634 115.118 456.675 115.65V115.818C456.728 116.257 456.745 116.699 456.728 117.141V117.902C456.738 117.998 456.738 118.095 456.728 118.191C456.736 118.275 456.736 118.359 456.728 118.442L456.683 119.203C456.669 119.646 456.616 120.086 456.523 120.519V120.686C456.439 121.22 456.317 121.746 456.158 122.261C455.725 123.83 455.056 125.323 454.172 126.689C452.877 128.716 451.163 130.443 449.147 131.755C447.131 133.067 444.857 133.933 442.479 134.296C441.631 134.432 440.774 134.511 439.915 134.532ZM439.915 101.82C438.305 101.816 436.704 102.072 435.176 102.58C433.724 103.036 432.349 103.708 431.098 104.574C430.563 104.921 430.055 105.308 429.577 105.73L428.93 106.316C428.458 106.774 428.018 107.265 427.614 107.784C425.515 110.4 424.308 113.619 424.172 116.971C424.035 120.322 424.974 123.629 426.853 126.407C427.219 126.965 427.625 127.494 428.07 127.99L428.344 128.317L428.656 128.629C429.09 129.079 429.555 129.499 430.048 129.884C431.223 130.843 432.54 131.612 433.951 132.166C436.569 133.232 439.422 133.583 442.221 133.186C444.657 132.838 446.976 131.921 448.991 130.508C450.657 129.351 452.088 127.887 453.206 126.194C454.056 124.919 454.712 123.524 455.153 122.056C455.494 120.909 455.724 119.732 455.838 118.541C455.845 118.424 455.86 118.307 455.884 118.191C455.875 118.072 455.875 117.953 455.884 117.834C455.861 116.639 455.723 115.449 455.473 114.281C455.147 112.78 454.598 111.336 453.845 109.998C452.861 108.223 451.55 106.651 449.98 105.365C448.078 103.805 445.838 102.71 443.438 102.17C442.287 101.928 441.114 101.803 439.938 101.797L439.915 101.82Z" fill="#E0E0E0"/>
<path d="M450.741 129.937C450.84 129.838 454.279 133.391 458.417 137.857C462.556 142.322 465.82 146.035 465.721 146.126C465.622 146.218 462.183 142.672 458.045 138.199C453.906 133.726 450.635 130.029 450.741 129.937Z" fill="#E0E0E0"/>
<path d="M465.865 146.514H465.697C465.553 146.514 465.195 146.514 457.77 138.465C450.345 130.417 450.368 130.089 450.368 129.93V129.77L450.49 129.656C450.809 129.359 450.84 129.336 453.343 131.938C454.796 133.46 456.698 135.453 458.668 137.613C460.638 139.774 462.54 141.836 463.917 143.395C466.306 146.096 466.283 146.126 465.956 146.438L465.865 146.514Z" fill="#E0E0E0"/>
<path d="M79.3319 97.0041L76.1596 98.2746L65.3797 91.4278L62.8463 85.0983C62.8463 85.0983 57.8177 86.7263 61.7204 94.7903C65.6231 102.854 64.1472 100.983 64.1472 100.983C64.1472 100.983 53.7553 105.197 53.2532 106.445C52.888 107.358 56.7451 117.803 58.8828 123.456C59.9631 126.293 62.7398 128.226 65.6383 127.845C66.0419 127.794 66.4378 127.694 66.8175 127.549C69.4117 126.506 81.8272 119.081 81.8272 119.081L87.2971 116.89L79.3319 97.0041Z" fill="#EBEBEB"/>
<path d="M87.7156 91.6256L94.4483 114.091L89.0241 116.267L80.5112 95.0186L87.7156 91.6256Z" fill="#EBEBEB"/>
<path d="M401.68 261.297L397.945 261.913L387.91 251.894L386.678 244.431C386.678 244.431 380.843 245.032 383.133 254.686C385.423 264.34 384.281 261.974 384.281 261.974C384.281 261.974 372.026 264.044 371.181 265.276C370.565 266.174 372.239 278.407 373.205 285.056C373.684 288.388 376.248 291.142 379.458 291.423C379.907 291.465 380.36 291.45 380.805 291.378C383.848 290.876 399.063 285.816 399.063 285.816L405.514 284.751L401.68 261.297Z" fill="#F5F5F5"/>
<path d="M412.034 257.486L413.951 283.42L407.553 284.478L403.422 259.433L412.034 257.486Z" fill="#F5F5F5"/>
<path d="M203.038 285.451C204.897 285.255 206.657 284.518 208.1 283.331C209.543 282.143 210.606 280.558 211.156 278.772C212.784 273.751 210.288 268.441 205.579 266.912C200.87 265.383 195.743 268.213 194.115 273.234C193.504 275.016 193.437 276.94 193.92 278.762C194.404 280.583 195.417 282.22 196.831 283.466C183.061 281.244 179.09 295.706 179.09 295.706L210.106 305.824C210.106 305.824 215.431 291.583 203.038 285.451Z" fill="#EBEBEB"/>
<path d="M405.476 148.561H99.5302C73.4596 148.561 52.3252 169.695 52.3252 195.766V199.098C52.3252 225.168 73.4596 246.303 99.5302 246.303H405.476C431.547 246.303 452.681 225.168 452.681 199.098V195.766C452.681 169.695 431.547 148.561 405.476 148.561Z" fill="#FF725E"/>
<g opacity="0.3">
<path d="M405.476 148.561H99.5302C73.4596 148.561 52.3252 169.695 52.3252 195.766V199.098C52.3252 225.168 73.4596 246.303 99.5302 246.303H405.476C431.547 246.303 452.681 225.168 452.681 199.098V195.766C452.681 169.695 431.547 148.561 405.476 148.561Z" fill="black"/>
</g>
<path d="M403.81 140.55H101.196C74.2055 140.55 52.3252 162.43 52.3252 189.421C52.3252 216.412 74.2055 238.292 101.196 238.292H403.81C430.801 238.292 452.681 216.412 452.681 189.421C452.681 162.43 430.801 140.55 403.81 140.55Z" fill="#FF725E"/>
<g opacity="0.3">
<path d="M343.718 140.55C343.718 140.55 341.511 140.603 340.401 140.588C336.597 140.55 329.75 140.55 329.75 140.55L324.843 149.633C325.977 152.022 327.46 154.7 330.054 155.225C331.357 155.396 332.683 155.231 333.904 154.746C336.985 153.797 339.868 152.294 342.409 150.31C343.992 149.174 345.171 147.562 345.772 145.708C346.236 143.836 345.467 141.371 343.718 140.55Z" fill="black"/>
</g>
<path d="M111.573 202.361L113.604 197.797C116.623 200.045 120.285 201.264 124.049 201.273C128.979 201.273 131.056 199.509 131.056 197.158C131.056 190.311 112.25 194.807 112.25 183.053C112.25 177.941 116.32 173.605 125 173.605C128.703 173.548 132.35 174.517 135.537 176.404L133.68 180.969C131.04 179.389 128.031 178.532 124.954 178.481C120.07 178.481 118.108 180.375 118.108 182.772C118.108 189.512 136.868 185.123 136.868 196.747C136.868 201.806 132.752 206.15 124.072 206.15C119.119 206.165 114.197 204.644 111.573 202.361Z" fill="white"/>
<path d="M165.518 181.593V205.739H160.132V202.658C159.171 203.768 157.974 204.649 156.629 205.236C155.284 205.823 153.824 206.102 152.357 206.051C146.165 206.051 141.958 202.658 141.958 195.401V181.593H147.587V194.617C147.587 198.999 149.664 201.076 153.24 201.076C157.173 201.076 159.843 198.634 159.843 193.803V181.593H165.518Z" fill="white"/>
<path d="M198.558 193.666C198.558 201.167 193.362 206.051 186.309 206.051C183.008 206.051 180.223 204.925 178.306 202.62V205.739H172.928V172.19H178.573V184.529C179.556 183.47 180.756 182.635 182.091 182.081C183.426 181.527 184.865 181.267 186.309 181.319C193.369 181.319 198.558 186.157 198.558 193.666ZM192.822 193.666C192.822 189.048 189.74 186.112 185.678 186.112C181.616 186.112 178.489 189.048 178.489 193.666C178.489 198.284 181.608 201.213 185.678 201.213C189.748 201.213 192.829 198.276 192.829 193.666H192.822Z" fill="white"/>
<path d="M201.19 203.343L203.366 199.044C205.896 200.596 208.804 201.425 211.772 201.441C215.348 201.441 216.839 200.444 216.839 198.771C216.839 194.16 201.913 198.504 201.913 188.881C201.913 184.316 206.028 181.326 212.563 181.326C215.774 181.326 219.41 182.087 221.609 183.411L219.433 187.702C217.338 186.475 214.945 185.848 212.518 185.891C209.079 185.891 207.451 187.024 207.451 188.607C207.451 193.491 222.377 189.147 222.377 198.596C222.377 203.122 218.216 206.059 211.437 206.059C207.39 206.051 203.366 204.879 201.19 203.343Z" fill="white"/>
<path d="M225.245 193.666C225.245 186.431 230.677 181.319 238.315 181.319C243.016 181.319 246.767 183.266 248.623 186.926L244.287 189.459C243.669 188.419 242.787 187.562 241.73 186.974C240.672 186.386 239.479 186.088 238.269 186.112C234.108 186.112 230.943 189.01 230.943 193.666C230.943 198.322 234.108 201.213 238.269 201.213C239.479 201.236 240.672 200.938 241.73 200.351C242.787 199.763 243.669 198.905 244.287 197.865L248.623 200.399C246.767 204.02 243.016 206.051 238.315 206.051C230.677 206.051 225.245 200.901 225.245 193.666Z" fill="white"/>
<path d="M267.482 181.319V186.697C267.049 186.613 266.608 186.57 266.166 186.568C261.876 186.568 259.16 189.094 259.16 194.023V205.739H253.507V181.593H258.886V185.115C260.514 182.582 263.458 181.319 267.482 181.319Z" fill="white"/>
<path d="M271.507 174.213C271.512 173.751 271.611 173.294 271.798 172.87C271.984 172.446 272.254 172.065 272.591 171.748C272.929 171.431 273.327 171.185 273.761 171.026C274.196 170.867 274.658 170.797 275.12 170.82C277.205 170.82 278.742 172.228 278.742 174.076C278.72 175.01 278.339 175.9 277.677 176.559C277.015 177.219 276.124 177.597 275.19 177.614C274.256 177.632 273.351 177.288 272.665 176.654C271.978 176.02 271.563 175.146 271.507 174.213ZM272.268 181.585H277.92V205.732H272.275L272.268 181.585Z" fill="white"/>
<path d="M310.975 193.666C310.975 201.167 305.779 206.051 298.727 206.051C295.425 206.051 292.641 204.925 290.724 202.62V205.739H285.337V172.19H290.99V184.529C291.973 183.47 293.173 182.635 294.508 182.081C295.843 181.527 297.282 181.267 298.727 181.319C305.779 181.319 310.975 186.157 310.975 193.666ZM305.239 193.666C305.239 189.048 302.158 186.112 298.095 186.112C294.033 186.112 290.906 189.048 290.906 193.666C290.906 198.284 294.025 201.213 298.095 201.213C302.165 201.213 305.239 198.276 305.239 193.666Z" fill="white"/>
<path d="M338.97 195.469H320.02C320.697 198.999 323.641 201.258 327.848 201.258C329.063 201.306 330.275 201.097 331.403 200.645C332.532 200.193 333.553 199.507 334.398 198.634L337.441 202.118C335.273 204.697 331.88 206.051 327.726 206.051C319.632 206.051 314.383 200.855 314.383 193.666C314.383 186.477 319.708 181.319 326.867 181.319C333.919 181.319 339.039 186.249 339.039 193.803C339.054 194.252 339.009 194.929 338.97 195.469ZM319.952 191.718H333.645C333.47 190.05 332.663 188.512 331.39 187.42C330.117 186.328 328.474 185.764 326.798 185.845C325.135 185.797 323.513 186.372 322.25 187.457C320.988 188.542 320.177 190.059 319.974 191.711L319.952 191.718Z" fill="white"/>
<path d="M343.444 202.529C343.445 202.056 343.543 201.589 343.73 201.154C343.917 200.72 344.19 200.329 344.533 200.003C344.875 199.677 345.281 199.425 345.724 199.26C346.167 199.095 346.639 199.022 347.111 199.044C347.577 199.028 348.041 199.106 348.476 199.274C348.911 199.443 349.307 199.697 349.64 200.023C349.974 200.349 350.238 200.739 350.416 201.169C350.595 201.6 350.684 202.063 350.679 202.529C350.684 202.997 350.595 203.461 350.417 203.893C350.239 204.326 349.975 204.719 349.642 205.047C349.309 205.376 348.914 205.634 348.479 205.807C348.044 205.979 347.578 206.062 347.111 206.051C346.637 206.068 346.164 205.99 345.721 205.821C345.278 205.652 344.873 205.396 344.531 205.067C344.189 204.738 343.916 204.344 343.729 203.908C343.543 203.472 343.446 203.003 343.444 202.529ZM343.763 174.084H350.45L349.324 195.248H344.844L343.763 174.084Z" fill="white"/>
<g opacity="0.3">
<path d="M169.649 150.318C168.5 147.496 166.667 142.429 164.271 140.55C164.271 140.55 148.926 140.816 148.85 140.55L155.956 166.073C158.276 167.891 159.394 170.402 160.14 172.768C160.885 175.134 161.486 177.698 163.183 179.485C164.879 181.273 168.242 181.768 169.725 179.797C171.384 177.561 169.573 174.472 169.527 171.695C169.482 168.918 171.232 166.461 171.947 163.783C173.187 159.295 171.407 154.616 169.649 150.318Z" fill="black"/>
</g>
<path d="M396.773 203.297L394.537 200.733C393.265 199.271 392.562 197.399 392.559 195.461V186.88C392.557 184.173 391.586 181.557 389.822 179.504C388.059 177.452 385.618 176.098 382.943 175.689V172.357C382.943 171.954 382.782 171.567 382.497 171.281C382.212 170.996 381.825 170.836 381.421 170.836C381.018 170.836 380.631 170.996 380.345 171.281C380.06 171.567 379.9 171.954 379.9 172.357V175.628C377.142 175.954 374.6 177.28 372.754 179.356C370.909 181.431 369.889 184.111 369.888 186.888V195.134C369.893 196.933 369.29 198.681 368.176 200.094L365.658 203.312H377.206C377.482 204.044 377.932 204.696 378.518 205.213C379.104 205.73 379.807 206.095 380.567 206.277C381.327 206.459 382.12 206.451 382.876 206.255C383.632 206.059 384.329 205.681 384.905 205.153C385.456 204.646 385.878 204.015 386.138 203.312L396.773 203.297Z" fill="white"/>
<path d="M285.087 61.6594C286.144 58.9587 287.224 56.1743 287.24 53.291C287.255 50.4078 285.969 47.2582 283.436 46.0182C281.077 44.8695 278.24 45.5313 275.744 44.7249C272.701 43.7359 270.655 40.7309 269.217 37.764C267.779 34.797 266.593 31.5562 264.234 29.2892C262.657 27.8294 260.668 26.8919 258.539 26.6046C256.41 26.3173 254.243 26.6942 252.336 27.684C249.582 25.9188 246.394 24.9475 243.123 24.8768C239.023 24.8768 234.367 25.3484 231.598 28.3686C229.445 30.7194 228.129 33.6939 225.451 35.3828C221.776 37.7564 216.938 35.9838 212.571 36.2805C211.681 36.3414 210.654 36.6 210.289 37.4217C210.209 37.789 210.207 38.169 210.283 38.5372C210.359 38.9054 210.511 39.2536 210.73 39.5594L214.321 46.5051C213.409 46.9462 212.409 47.1754 211.396 47.1754C210.383 47.1754 209.383 46.9462 208.471 46.5051C208.828 51.1464 210.801 55.5157 214.047 58.8522C213.286 58.3273 212.107 58.9283 211.765 59.8107C211.486 60.7281 211.529 61.7131 211.886 62.6027C212.728 65.4087 214.161 68.0015 216.091 70.2057C218.02 72.4099 220.4 74.1742 223.07 75.3794C225.74 76.5845 228.638 77.2024 231.567 77.1913C234.496 77.1802 237.389 76.5403 240.05 75.315L264.204 76.3876C264.563 77.3072 265.138 78.1268 265.881 78.7769C266.624 79.4271 267.513 79.8888 268.472 80.1229C271.111 78.0385 271.515 76.9049 271.515 76.9049C273.219 78.0917 271.895 77.5059 273.219 78.0917C276.262 79.423 280.613 77.5972 281.184 74.2879C281.317 72.9236 281.846 71.6279 282.705 70.5602C283.626 69.5636 284.988 69.1528 286.167 68.5062C288.06 67.4624 289.559 65.8271 290.435 63.8504C289.44 63.8774 288.45 63.6965 287.529 63.3192C286.608 62.9419 285.776 62.3766 285.087 61.6594Z" fill="#263238"/>
<path d="M225.527 52.4922C225.569 46.6608 227.805 41.0589 231.79 36.8016C235.775 32.5442 241.217 29.9436 247.033 29.5174L248.235 29.4261C261.214 29.2359 268.624 40.1528 268.456 53.1313L270.389 112.904L240.757 115.011L239.639 95.612C239.639 95.612 227.071 94.5849 226.006 82.177C225.496 76.1822 225.443 63.7591 225.527 52.4922Z" fill="#FFBE9D"/>
<path d="M231.742 61.9028C231.771 62.3595 231.976 62.7872 232.314 63.0963C232.651 63.4054 233.095 63.572 233.552 63.5613C233.78 63.5634 234.005 63.5198 234.215 63.4331C234.425 63.3463 234.616 63.2183 234.776 63.0565C234.935 62.8947 235.061 62.7025 235.145 62.4912C235.229 62.28 235.269 62.054 235.264 61.8268C235.235 61.3653 235.027 60.9334 234.685 60.6225C234.343 60.3115 233.893 60.1459 233.431 60.1607C232.976 60.1687 232.543 60.3565 232.227 60.683C231.91 61.0095 231.736 61.4481 231.742 61.9028Z" fill="#263238"/>
<path d="M229.277 57.2622C229.513 57.4752 230.799 56.3797 232.693 56.2504C234.587 56.121 236.071 56.9655 236.261 56.7144C236.352 56.6079 236.101 56.2047 235.454 55.8015C234.587 55.29 233.582 55.0613 232.579 55.1473C231.585 55.2151 230.638 55.5989 229.878 56.2428C229.33 56.7297 229.155 57.1633 229.277 57.2622Z" fill="#263238"/>
<path d="M241.921 72.7664C241.921 72.6599 240.719 72.5382 238.779 72.4393C238.292 72.4393 237.821 72.3556 237.714 72.0285C237.641 71.528 237.718 71.017 237.935 70.5602L239.106 66.7564C240.719 61.3246 241.853 56.8666 241.632 56.8057C241.411 56.7449 239.928 61.0964 238.308 66.5282C237.927 67.8672 237.547 69.1452 237.204 70.332C236.939 70.9424 236.899 71.627 237.09 72.2643C237.174 72.4303 237.294 72.5753 237.442 72.6885C237.589 72.8018 237.76 72.8804 237.942 72.9186C238.218 72.9681 238.499 72.986 238.779 72.9718C240.727 72.9566 241.921 72.8805 241.921 72.7664Z" fill="#263238"/>
<path d="M228.684 52.6672C229.125 53.0704 230.707 52.5226 232.647 52.3781C234.587 52.2336 236.238 52.4466 236.588 51.9673C236.74 51.7391 236.459 51.3206 235.713 50.9555C234.688 50.5049 233.563 50.3292 232.449 50.4458C231.338 50.5208 230.266 50.8911 229.346 51.5184C228.691 52.0053 228.494 52.4922 228.684 52.6672Z" fill="#263238"/>
<path d="M267.254 62.4809C267.459 62.3744 275.622 59.3314 275.957 67.8443C276.292 76.3572 267.688 74.9498 267.665 74.6911C267.642 74.4324 267.254 62.4809 267.254 62.4809Z" fill="#FFBE9D"/>
<path d="M269.384 71.4275C269.384 71.4275 269.536 71.5264 269.795 71.6329C270.152 71.7728 270.549 71.7728 270.906 71.6329C271.788 71.2601 272.488 69.807 272.427 68.2703C272.419 67.5393 272.247 66.8194 271.925 66.163C271.844 65.9032 271.702 65.6664 271.512 65.4719C271.322 65.2775 271.088 65.1311 270.83 65.0447C270.657 65.0073 270.477 65.0308 270.321 65.1113C270.164 65.1918 270.04 65.3242 269.97 65.4859C269.871 65.7294 269.932 65.8968 269.886 65.9196C269.841 65.9424 269.696 65.7826 269.749 65.4251C269.791 65.2136 269.901 65.0214 270.061 64.8773C270.284 64.7169 270.556 64.6413 270.83 64.6643C271.181 64.7221 271.512 64.8674 271.793 65.0867C272.073 65.3061 272.294 65.5925 272.435 65.9196C272.825 66.6452 273.033 67.4543 273.043 68.2779C273.043 69.9896 272.245 71.6329 271.035 72.0361C270.809 72.1128 270.568 72.1376 270.331 72.1086C270.094 72.0797 269.867 71.9977 269.666 71.8687C269.407 71.6329 269.354 71.4427 269.384 71.4275Z" fill="#EB996E"/>
<path d="M270.137 43.036C269.482 40.5633 268.358 38.2391 266.828 36.1892C262.37 30.0042 252.206 27.1134 246.44 27.6231C240.673 28.1328 234.678 32.4158 229.3 34.5612C225.777 35.9686 223.107 39.2018 224.446 41.7047C222.365 42.5318 220.163 43.0148 217.926 43.1349C217.926 43.1349 217.713 46.3149 219.486 47.1593L225.04 50.7957C232.442 51.7695 245.435 44.4891 247.938 42.1916C250.267 40.0525 252.844 38.2008 255.614 36.6761C253.264 42.861 260.94 41.4993 260.734 43.8957C258.384 52.5911 265.474 55.8015 265.474 55.8015L265.649 63.4091C265.489 65.3642 266.326 66.8629 268.281 66.7336C268.281 66.7336 270.396 63.8275 270.753 61.4616C271.431 56.8666 270.997 47.5853 270.137 43.036Z" fill="#263238"/>
<path d="M239.532 95.5967C245.304 95.1807 250.834 93.1129 255.462 89.64C255.462 89.64 252.29 98.8604 239.814 98.655L239.532 95.5967Z" fill="#EB996E"/>
<path d="M249.643 60.7617C249.672 61.2238 249.881 61.6561 250.225 61.966C250.569 62.276 251.021 62.4389 251.484 62.4201C251.71 62.4222 251.935 62.3788 252.145 62.2926C252.354 62.2063 252.544 62.079 252.704 61.918C252.863 61.757 252.989 61.5657 253.074 61.3553C253.158 61.145 253.199 60.9198 253.195 60.6932C253.168 60.2297 252.959 59.7955 252.615 59.484C252.271 59.1724 251.818 59.0084 251.354 59.0271C251.127 59.025 250.902 59.0687 250.691 59.1554C250.481 59.2421 250.291 59.3701 250.131 59.5319C249.971 59.6937 249.846 59.886 249.762 60.0972C249.678 60.3085 249.637 60.5344 249.643 60.7617Z" fill="#263238"/>
<path d="M247.596 56.296C247.824 56.5319 249.331 55.5885 251.4 55.6722C253.469 55.7559 254.998 56.7677 255.204 56.5395C255.318 56.4406 255.09 56.0145 254.443 55.5429C253.541 54.9366 252.486 54.5965 251.4 54.5615C250.333 54.5094 249.274 54.7741 248.357 55.3223C247.71 55.7787 247.482 56.1895 247.596 56.296Z" fill="#263238"/>
<path d="M247.398 50.3165C247.589 50.8338 249.498 50.6055 251.742 50.887C253.987 51.1685 255.797 51.8075 256.102 51.3359C256.231 51.1153 255.919 50.6284 255.196 50.1187C254.222 49.4969 253.119 49.1052 251.971 48.9734C250.823 48.8416 249.66 48.9731 248.57 49.3579C247.741 49.6622 247.322 50.0654 247.398 50.3165Z" fill="#263238"/>
<path d="M241.753 76.4409C243.356 75.9057 244.996 75.4887 246.66 75.1932L247.87 74.8129C248.174 75.3553 248.357 75.9577 248.404 76.578C248.451 77.1982 248.363 77.8213 248.144 78.4036C247.889 78.8236 247.547 79.1846 247.142 79.4627C246.736 79.7407 246.277 79.9295 245.793 80.0164C245.453 80.1069 245.098 80.1251 244.751 80.0701C244.404 80.0151 244.072 79.888 243.777 79.6969C243.777 79.6969 242.217 79.0731 241.753 76.4409Z" fill="#EB996E"/>
<path d="M245.055 80.024C245.708 79.9356 246.329 79.6902 246.866 79.3089C247.413 78.8688 247.811 78.2713 248.007 77.5972C248.265 76.7752 248.265 75.8935 248.007 75.0715L247.969 74.9422L248.197 75.0639C246.371 75.4747 244.72 75.8246 243.518 76.0453C242.881 76.2112 242.228 76.3106 241.571 76.342C242.181 76.0883 242.816 75.8996 243.465 75.779C244.644 75.4747 246.28 75.0867 248.106 74.6759H248.281L248.342 74.8433L248.387 74.9878C248.677 75.8855 248.677 76.8516 248.387 77.7494C248.151 78.4831 247.681 79.1192 247.048 79.56C246.631 79.8597 246.144 80.0458 245.633 80.1001C245.437 80.133 245.236 80.1065 245.055 80.024Z" fill="#263238"/>
<path d="M283.763 69.0235C283.585 69.0052 283.411 68.9617 283.245 68.8942C282.777 68.6843 282.371 68.3567 282.066 67.9432C281.577 67.29 281.273 66.5176 281.184 65.7066C281.108 64.6474 281.154 63.583 281.321 62.5343C281.54 61.2996 281.483 60.0317 281.153 58.8218C280.936 58.1748 280.541 57.6024 280.012 57.1709C279.426 56.7236 278.788 56.3505 278.11 56.0602C277.373 55.7426 276.666 55.3607 275.995 54.9191C275.287 54.4236 274.738 53.7341 274.413 52.9335C273.721 51.3207 273.782 49.5025 273.401 47.806C273.236 46.9696 272.894 46.1784 272.397 45.4857C271.897 44.8391 271.177 44.398 270.373 44.2457C269.575 44.0631 268.745 44.0326 267.931 43.8729C267.1 43.7448 266.338 43.3369 265.771 42.7165C265.292 42.0969 264.962 41.3761 264.805 40.6092C264.63 39.8485 264.523 39.1866 264.371 38.5248C264.136 37.2893 263.561 36.1436 262.713 35.2155C261.492 33.8488 259.836 32.9458 258.026 32.6593C257.357 32.5793 256.682 32.564 256.01 32.6137C256.674 32.4499 257.364 32.4137 258.041 32.5072C259.918 32.7426 261.649 33.6379 262.926 35.0329C263.337 35.4827 263.692 35.9808 263.983 36.5164C264.29 37.1191 264.52 37.7581 264.668 38.4183C264.827 39.0953 264.942 39.7952 265.124 40.4951C265.274 41.207 265.583 41.8756 266.029 42.4503C266.546 43.0026 267.236 43.3622 267.985 43.4697C268.745 43.6218 269.59 43.6447 270.434 43.8348C271.338 43.9982 272.15 44.4883 272.716 45.2118C273.252 45.9505 273.621 46.7967 273.797 47.6919C274.185 49.4645 274.124 51.237 274.778 52.7509C275.073 53.489 275.575 54.1259 276.224 54.5843C276.872 55.0136 277.557 55.3853 278.27 55.6951C278.977 56.0025 279.641 56.3987 280.248 56.8742C280.829 57.3548 281.258 57.9946 281.48 58.7153C281.812 59.9749 281.857 61.2932 281.61 62.5723C281.432 63.5993 281.368 64.6428 281.42 65.6838C281.478 66.4608 281.741 67.2086 282.18 67.852C282.568 68.4027 283.123 68.8136 283.763 69.0235Z" fill="#455A64"/>
<path d="M215.294 38.7378C215.428 38.8076 215.555 38.889 215.675 38.9812C215.949 39.179 216.306 39.4224 216.74 39.742C218.041 40.6368 219.449 41.3652 220.932 41.9101C223.119 42.7318 225.522 42.7802 227.74 42.047C229.028 41.5953 230.159 40.7818 230.996 39.7039C231.853 38.5063 232.6 37.2331 233.225 35.9001C233.887 34.5325 234.807 33.3055 235.934 32.2865C237.011 31.3636 238.249 30.6467 239.585 30.1716C241.85 29.3958 244.276 29.2176 246.63 29.6543C248.205 29.9341 249.738 30.4094 251.195 31.0693C251.712 31.3052 252.1 31.503 252.359 31.6475C252.497 31.7103 252.627 31.7894 252.747 31.8833C252.602 31.8422 252.461 31.7861 252.328 31.716C252.054 31.6019 251.651 31.4193 251.134 31.2139C249.667 30.6131 248.135 30.1842 246.569 29.9358C244.262 29.5393 241.891 29.741 239.684 30.5216C238.396 30.984 237.205 31.6804 236.17 32.5756C235.078 33.5671 234.19 34.7607 233.553 36.0903C232.91 37.452 232.146 38.753 231.27 39.9778C230.383 41.1058 229.189 41.9537 227.832 42.4198C225.535 43.1693 223.048 43.0913 220.802 42.1992C219.31 41.6339 217.902 40.8659 216.618 39.9169C216.162 39.5898 215.819 39.3159 215.591 39.1562C215.472 39.0323 215.372 38.8913 215.294 38.7378Z" fill="#455A64"/>
<path d="M212.092 50.0426C212.137 49.9893 212.723 50.499 213.78 51.1457C215.159 51.9854 216.665 52.5968 218.238 52.9563C219.813 53.311 221.434 53.406 223.039 53.2378C224.271 53.1084 225.017 52.903 225.04 52.9715C224.883 53.0696 224.711 53.1391 224.53 53.1769C224.054 53.3345 223.565 53.4491 223.069 53.5192C219.765 54.0241 216.393 53.2605 213.628 51.3815C213.216 51.1032 212.827 50.7929 212.464 50.4534C212.206 50.2099 212.076 50.0578 212.092 50.0426Z" fill="#455A64"/>
<path d="M219.243 57.1557C219.296 57.0416 220.589 57.5741 222.286 57.848C223.982 58.1218 225.329 58.061 225.374 58.1827C223.289 58.6107 221.118 58.2445 219.288 57.1557H219.243Z" fill="#455A64"/>
<path d="M240.057 102.847L215.629 109.549L189.284 128.568L196.314 140.588L320.553 140.801C320.553 140.801 316.026 124.201 314.535 119.104C312.291 111.413 309.248 109.214 306.464 106.422C305.172 105.27 303.665 104.385 302.028 103.821C297.122 102.748 274.382 97.6355 269.955 97.7344C269.955 97.7344 264.85 108.279 254.154 108.18C243.458 108.081 240.057 102.847 240.057 102.847Z" fill="#455A64"/>
<path d="M290.412 122.353C290.488 122.353 290.716 121.348 291.439 119.842C292.415 117.894 293.7 116.116 295.242 114.578C296.786 113.038 298.435 111.609 300.18 110.302C300.925 109.781 301.63 109.204 302.287 108.575C301.483 108.994 300.719 109.486 300.005 110.044C298.187 111.292 296.489 112.706 294.931 114.266C293.368 115.841 292.105 117.686 291.203 119.713C290.935 120.329 290.721 120.968 290.564 121.622C290.47 121.855 290.418 122.102 290.412 122.353Z" fill="#263238"/>
<path d="M216.215 135.544C216.324 134.686 216.352 133.82 216.299 132.957C216.299 131.368 216.192 129.154 216.01 126.734C215.827 124.315 215.576 122.117 215.348 120.534C215.273 119.674 215.115 118.823 214.876 117.993C214.856 118.856 214.91 119.719 215.036 120.572C215.18 122.299 215.363 124.422 215.561 126.773C215.759 129.123 215.865 131.246 215.979 132.973C215.985 133.835 216.064 134.695 216.215 135.544Z" fill="#263238"/>
<g opacity="0.3">
<path d="M208.889 138.701C210.897 138.108 212.944 137.347 214.435 135.871C215.926 134.395 216.717 132.067 215.827 130.143C217.31 133.286 219.669 135.934 222.62 137.769C225.572 139.605 228.99 140.549 232.465 140.489L202.993 140.854C204.796 139.781 206.873 139.302 208.889 138.701Z" fill="black"/>
</g>
<path d="M347.879 140.793C347.879 140.793 344.889 136.731 343.421 135.962C341.953 135.194 339.922 135.202 339.032 136.016L338.141 136.815C338.141 136.815 333.508 134.73 331.295 136.335C331.295 136.335 326.882 134.243 324.767 136.632C324.767 136.632 321.367 134.426 319.929 136.35C318.491 138.275 318.643 141.546 319.336 143.197C320.028 144.848 321.336 150.599 322.379 150.698C322.379 150.698 325.094 150.987 325.422 149.527C325.749 148.066 325.939 147.351 325.939 147.351C325.939 147.351 326.974 152.539 328.221 152.79C329.469 153.041 331.85 152.912 331.934 150.637C331.934 150.637 333.09 152.357 334.216 151.855C335.342 151.353 336.742 150.523 336.62 149.124C336.498 147.724 336.475 146.309 336.475 146.309C336.475 146.309 337.099 148.355 338.119 147.914C339.138 147.473 340.173 147.564 340.751 145.822C341.329 144.08 342.752 140.77 342.752 140.77L347.879 140.793Z" fill="#FFBE9D"/>
<path d="M336.551 146.218C336.62 146.218 336.346 145.655 336.11 144.749C335.789 143.578 335.737 142.35 335.959 141.156C336.18 139.963 336.669 138.835 337.388 137.857C337.723 137.472 338.036 137.068 338.324 136.647C337.852 136.887 337.445 137.236 337.137 137.667C336.309 138.644 335.75 139.821 335.516 141.08C335.283 142.34 335.383 143.639 335.806 144.848C335.937 145.359 336.193 145.83 336.551 146.218Z" fill="#EB996E"/>
<path d="M330.991 136.358C330.689 137.006 330.489 137.696 330.397 138.405C330.076 140.094 329.971 141.817 330.085 143.532C330.198 145.247 330.533 146.94 331.082 148.568C331.273 149.256 331.562 149.912 331.941 150.516C332.086 150.47 330.778 147.473 330.534 143.502C330.291 139.53 331.135 136.389 330.991 136.358Z" fill="#EB996E"/>
<path d="M324.645 136.7C324.325 138.513 324.304 140.366 324.585 142.185C324.717 144.021 325.157 145.821 325.885 147.511C326.015 147.473 325.361 145.114 325.026 142.132C324.691 139.15 324.782 136.708 324.645 136.7Z" fill="#EB996E"/>
<path d="M306.403 137.864C306.514 137.63 306.677 137.424 306.878 137.261C307.08 137.098 307.315 136.982 307.567 136.921C308.158 136.792 308.772 136.807 309.357 136.963C309.942 137.119 310.481 137.412 310.929 137.819C311.896 138.705 312.724 139.73 313.387 140.862H306.814C306.882 139.804 306.03 138.8 306.403 137.864Z" fill="#FFBE9D"/>
<path d="M139.827 142.566C140.029 140.557 140.689 138.621 141.756 136.906C142.823 135.192 144.268 133.745 145.982 132.676C147.347 131.874 148.871 131.377 150.447 131.221C152.023 131.065 153.614 131.252 155.111 131.771L167.808 136.176C168.492 136.936 189.421 128.834 189.421 128.834L196.443 140.839L156.45 140.786C158.651 143.292 160.982 145.682 163.433 147.944L166.149 156.967L165.845 165.138C164.415 165.799 162.262 163.274 162.262 163.274L161.014 165.556L161.433 167.777C161.433 167.777 165.13 176.754 165.001 178.747C165.002 178.899 164.972 179.05 164.914 179.19C164.855 179.33 164.769 179.456 164.66 179.562C164.551 179.668 164.422 179.751 164.281 179.806C164.139 179.861 163.988 179.886 163.837 179.881C163.305 179.914 162.776 179.786 162.317 179.515C161.859 179.244 161.492 178.841 161.265 178.36L156.031 168.203C156.031 168.203 151.961 167.207 150.546 165.868C149.131 164.529 146.933 161.927 146.933 161.927L144.354 161.562C144.045 161.6 143.732 161.536 143.464 161.379C142.782 161.044 142.189 160.552 141.734 159.944C141.28 159.336 140.975 158.628 140.846 157.88L139.53 151.033C139.218 149.489 139.492 145.868 139.827 142.566Z" fill="#FFBE9D"/>
<path d="M151.733 160.345C152.481 163.301 153.968 166.018 156.055 168.241C156.153 168.165 154.944 166.545 153.772 164.369C152.601 162.193 151.855 160.299 151.733 160.345Z" fill="#EB996E"/>
<path d="M145.632 159.592C145.503 159.652 145.974 160.702 146.796 161.813C147.235 162.531 147.799 163.165 148.462 163.684C148.133 162.915 147.686 162.202 147.138 161.57C146.69 160.871 146.186 160.209 145.632 159.592Z" fill="#EB996E"/>
<path d="M162.277 169.847C162.088 169.002 161.849 168.168 161.562 167.351C161.098 165.83 160.497 163.7 159.911 161.334C159.615 160.147 159.348 159.052 159.15 157.986C158.913 157.094 158.821 156.169 158.877 155.248C158.966 154.408 159.302 153.614 159.843 152.965C159.843 152.965 159.599 153.08 159.31 153.437C158.906 153.957 158.644 154.573 158.549 155.225C158.446 156.179 158.508 157.144 158.732 158.078C158.945 159.12 159.196 160.261 159.493 161.448C160.079 163.829 160.733 165.952 161.265 167.465C161.518 168.293 161.857 169.091 162.277 169.847Z" fill="#EB996E"/>
<path d="M159.523 154.685C159.478 154.73 159.911 155.217 160.413 156.123C161.064 157.293 161.451 158.591 161.547 159.926C161.536 160.692 161.599 161.456 161.737 162.209C161.89 162.84 162.223 163.413 162.696 163.859C163.088 164.29 163.575 164.624 164.118 164.833C164.164 164.772 163.601 164.415 162.916 163.654C162.515 163.23 162.238 162.704 162.118 162.133C162.008 161.397 161.957 160.654 161.965 159.911C161.88 158.507 161.432 157.149 160.664 155.97C160.39 155.458 159.999 155.018 159.523 154.685Z" fill="#EB996E"/>
<path d="M156.549 140.907C156.625 140.809 155.134 139.576 153.643 137.743C152.151 135.909 151.185 134.22 151.048 134.327C151.172 134.731 151.349 135.117 151.573 135.476C152.077 136.37 152.66 137.218 153.315 138.009C154.186 139.184 155.286 140.17 156.549 140.907Z" fill="#EB996E"/>
<g opacity="0.3">
<path d="M288.137 140.793L288.631 129.336L280.583 140.778L288.137 140.793Z" fill="black"/>
</g>
<path d="M288.137 140.793C288.066 138.53 288.127 136.264 288.32 134.007C288.379 131.744 288.57 129.486 288.89 127.244C288.962 129.508 288.904 131.773 288.715 134.03C288.656 136.294 288.462 138.552 288.137 140.793Z" fill="#263238"/>
<path d="M285.68 100.77C285.795 101.008 285.865 101.266 285.885 101.531C285.941 102.28 285.746 103.027 285.33 103.653C284.687 104.66 283.691 105.39 282.538 105.7C281.044 106.056 279.506 106.187 277.973 106.088C277.088 106.062 276.203 106.108 275.326 106.225C274.387 106.334 273.484 106.654 272.686 107.16C271.858 107.734 271.203 108.523 270.792 109.443C270.355 110.436 270.028 111.474 269.818 112.539C269.567 113.634 269.346 114.775 269.004 115.917C268.659 117.099 268.082 118.2 267.307 119.157C266.488 120.161 265.472 120.987 264.322 121.585C263.172 122.183 261.913 122.54 260.62 122.634C258.009 122.759 255.454 121.846 253.515 120.093C252.613 119.264 251.857 118.29 251.278 117.21C250.781 116.197 250.025 115.334 249.087 114.707C248.139 114.217 247.064 114.028 246.006 114.167C244.983 114.285 243.967 114.46 242.963 114.692C242.013 114.911 241.046 115.043 240.072 115.087C239.162 115.101 238.256 114.957 237.394 114.661C235.927 114.148 234.617 113.265 233.591 112.098C232.8 111.233 232.189 110.219 231.795 109.115C231.653 108.714 231.541 108.302 231.46 107.883C231.422 107.518 231.362 107.206 231.362 106.955V106.384C231.35 106.319 231.35 106.252 231.362 106.186C231.397 107.169 231.587 108.139 231.925 109.062C232.413 110.301 233.164 111.418 234.127 112.338C235.09 113.257 236.241 113.957 237.501 114.387C238.331 114.666 239.204 114.798 240.08 114.775C241.036 114.721 241.986 114.581 242.917 114.357C243.92 114.118 244.936 113.937 245.96 113.817C247.09 113.661 248.241 113.857 249.255 114.38C250.253 115.033 251.057 115.942 251.582 117.012C252.15 118.053 252.885 118.994 253.758 119.796C255.629 121.482 258.091 122.357 260.605 122.231C261.843 122.139 263.05 121.797 264.152 121.225C265.254 120.654 266.229 119.865 267.018 118.906C268.593 117.05 268.958 114.631 269.468 112.455C269.689 111.366 270.031 110.304 270.487 109.29C270.92 108.309 271.622 107.471 272.511 106.871C273.351 106.341 274.3 106.008 275.288 105.897C276.181 105.789 277.081 105.751 277.981 105.783C279.51 105.907 281.049 105.8 282.545 105.464C283.658 105.181 284.627 104.499 285.269 103.547C285.684 102.953 285.895 102.24 285.87 101.515C285.771 101.021 285.649 100.778 285.68 100.77Z" fill="white"/>
<path d="M248.684 139.979C248.612 139.81 248.559 139.634 248.524 139.454C248.418 139.074 248.281 138.572 248.106 137.933C247.628 136.083 246.857 134.321 245.823 132.714C245.472 132.198 245.067 131.721 244.614 131.291C244.116 130.838 243.561 130.452 242.963 130.143C241.606 129.514 240.109 129.252 238.619 129.382C236.96 129.527 235.316 129.812 233.705 130.234C231.947 130.71 230.132 130.946 228.311 130.934C227.413 130.988 226.513 130.861 225.665 130.559C224.818 130.256 224.04 129.786 223.38 129.175C222.719 128.565 222.188 127.827 221.82 127.006C221.451 126.185 221.253 125.299 221.236 124.399C221.125 122.878 221.161 121.349 221.342 119.834C221.487 118.529 221.52 117.213 221.441 115.901C221.394 114.956 221.159 114.03 220.752 113.176C220.345 112.322 219.772 111.558 219.068 110.926C218.518 110.502 217.893 110.184 217.227 109.99H217.363C217.497 110.011 217.63 110.041 217.759 110.082C218.27 110.227 218.748 110.47 219.166 110.797C219.913 111.424 220.523 112.197 220.961 113.068C221.4 113.939 221.656 114.89 221.715 115.863C221.821 117.191 221.805 118.525 221.669 119.85C221.501 121.348 221.478 122.858 221.601 124.361C221.708 126.006 222.383 127.563 223.51 128.766C224.835 129.942 226.555 130.575 228.326 130.538C230.11 130.543 231.888 130.316 233.613 129.861C235.249 129.435 236.919 129.152 238.604 129.017C240.155 128.891 241.712 129.18 243.115 129.854C243.736 130.183 244.312 130.592 244.827 131.071C245.29 131.533 245.703 132.043 246.059 132.592C247.074 134.234 247.807 136.034 248.227 137.918C248.387 138.579 248.501 139.097 248.57 139.439C248.627 139.614 248.666 139.796 248.684 139.979Z" fill="white"/>
<path d="M289.088 130.249C288.023 129.72 286.91 129.294 285.763 128.979C284.518 128.686 283.234 128.593 281.96 128.705C280.397 128.839 278.88 129.303 277.509 130.067C276.139 130.839 274.935 131.873 273.964 133.11C273.166 134.116 272.551 135.254 272.146 136.472C271.857 137.282 271.797 138.156 271.971 138.998C272.064 139.301 272.176 139.598 272.306 139.888C272.306 139.888 272.237 139.835 272.138 139.698C272.002 139.497 271.896 139.276 271.826 139.044C271.582 138.173 271.598 137.25 271.872 136.389C272.257 135.123 272.868 133.937 273.675 132.889C274.664 131.603 275.903 130.532 277.319 129.74C278.738 128.953 280.311 128.484 281.929 128.363C283.247 128.266 284.571 128.392 285.847 128.735C286.703 128.962 287.526 129.297 288.297 129.732C288.511 129.84 288.714 129.968 288.905 130.112C289.012 130.181 289.088 130.242 289.088 130.249Z" fill="white"/>
<path d="M297.273 109.732C297.235 109.732 297 109.42 296.809 108.788C296.575 107.962 296.538 107.092 296.702 106.249C296.866 105.406 297.226 104.613 297.753 103.935C298.163 103.425 298.513 103.174 298.513 103.235C297.784 104.13 297.288 105.192 297.068 106.325C296.847 107.458 296.91 108.628 297.251 109.732H297.273Z" fill="white"/>
<path d="M315.889 124.81C315.889 124.81 315.889 124.924 315.813 125.137C315.721 125.453 315.604 125.761 315.463 126.057C314.934 127.147 314.192 128.12 313.28 128.918C311.913 130.106 310.233 130.874 308.441 131.132C306.387 131.436 304.189 130.774 301.983 130.226C300.911 129.939 299.812 129.774 298.704 129.732C297.67 129.709 296.64 129.866 295.661 130.196C294.006 130.763 292.518 131.733 291.332 133.018C290.532 133.888 289.893 134.892 289.445 135.985C289.126 136.746 289.034 137.225 288.989 137.21C288.995 137.097 289.013 136.985 289.042 136.875C289.1 136.554 289.187 136.238 289.301 135.932C289.707 134.791 290.326 133.738 291.126 132.828C292.32 131.474 293.842 130.45 295.546 129.854C296.556 129.502 297.619 129.33 298.688 129.344C299.825 129.378 300.954 129.546 302.051 129.846C304.28 130.401 306.41 131.04 308.373 130.767C310.103 130.537 311.733 129.822 313.074 128.705C313.981 127.945 314.737 127.021 315.303 125.981C315.714 125.243 315.851 124.764 315.889 124.81Z" fill="white"/>
<path d="M214.153 138.701C214.153 138.701 214.062 138.701 213.887 138.747C213.634 138.767 213.379 138.767 213.126 138.747C212.176 138.689 211.247 138.449 210.387 138.039C209.102 137.431 208 136.494 207.192 135.323C206.718 134.627 206.366 133.855 206.15 133.041C205.936 132.179 205.786 131.301 205.701 130.417C205.496 128.644 205.199 126.902 204.18 125.746C203.256 124.747 202.018 124.095 200.673 123.897C199.758 123.734 198.832 123.643 197.903 123.623C197.56 123.634 197.216 123.611 196.876 123.555C197.215 123.492 197.559 123.464 197.903 123.471C198.847 123.431 199.792 123.482 200.726 123.623C202.154 123.795 203.475 124.463 204.461 125.51C205.003 126.162 205.396 126.926 205.61 127.746C205.832 128.608 205.987 129.485 206.074 130.371C206.167 131.236 206.311 132.095 206.508 132.942C206.71 133.716 207.039 134.452 207.481 135.118C208.251 136.253 209.299 137.172 210.524 137.788C211.659 138.337 212.894 138.648 214.153 138.701Z" fill="white"/>
<path d="M245.725 268.114C246.868 270.231 247.618 272.538 247.939 274.922H252.016L269.156 274.626L269.034 274.93C269.034 274.93 271.826 261.784 272.336 257.874C272.762 254.641 274.755 246.927 272.336 243.526C271.9 242.926 271.287 242.478 270.583 242.243C269.879 242.008 269.12 241.999 268.411 242.218C267.917 242.36 267.472 242.637 267.125 243.017C266.779 243.397 266.544 243.865 266.448 244.37C266.448 244.37 266.243 239.806 262.971 239.737C259.7 239.669 259.586 242.225 259.586 242.225C259.586 242.225 258.688 237.022 255.021 237.067C254.318 237.133 253.65 237.41 253.107 237.862C252.564 238.314 252.17 238.92 251.978 239.601V229.749C251.981 228.784 251.617 227.855 250.96 227.149C250.303 226.443 249.403 226.012 248.441 225.945C247.951 225.928 247.463 226.008 247.005 226.182C246.548 226.357 246.129 226.62 245.775 226.958C245.42 227.297 245.137 227.702 244.942 228.151C244.746 228.6 244.643 229.084 244.637 229.574L244.34 252.488L238.772 245.352C237.326 243.503 233.849 244.424 233.446 246.014C233.446 246.014 232.442 248.106 234.511 251.187C236.018 253.461 245.725 268.114 245.725 268.114Z" fill="#EBEBEB"/>
<path d="M245.725 268.114C245.725 268.114 245.626 267.992 245.458 267.748C245.291 267.505 245.032 267.125 244.698 266.645L241.845 262.4L237.303 255.614C236.428 254.291 235.485 252.883 234.488 251.385C233.939 250.619 233.52 249.768 233.248 248.866C232.929 247.901 232.929 246.858 233.248 245.892C233.467 245.303 233.91 244.824 234.481 244.561C235.037 244.283 235.647 244.128 236.268 244.104C236.918 244.069 237.565 244.22 238.132 244.538C238.277 244.621 238.399 244.736 238.535 244.827C238.672 244.918 238.771 245.07 238.878 245.192L239.471 245.953L244.439 252.305L244.142 252.412C244.218 246.014 244.302 239.007 244.386 231.559C244.386 231.088 244.386 230.624 244.386 230.152C244.371 229.668 244.404 229.184 244.485 228.706C244.628 227.942 245.002 227.24 245.557 226.694C246.111 226.149 246.82 225.787 247.587 225.657C248.354 225.527 249.142 225.635 249.846 225.966C250.549 226.298 251.134 226.838 251.522 227.512C251.796 227.952 251.984 228.44 252.077 228.95C252.145 229.454 252.168 229.963 252.145 230.471V239.547L251.765 239.486C251.95 238.839 252.308 238.254 252.799 237.795C253.291 237.335 253.899 237.018 254.557 236.877C254.755 236.823 254.962 236.808 255.166 236.831C255.365 236.835 255.564 236.858 255.759 236.9C256.536 237.068 257.241 237.475 257.775 238.064C258.768 239.227 259.43 240.635 259.692 242.141H259.304C259.351 241.636 259.532 241.153 259.829 240.742C260.126 240.332 260.528 240.008 260.993 239.806C261.441 239.612 261.92 239.501 262.408 239.479C262.649 239.46 262.89 239.46 263.131 239.479L263.496 239.517L263.853 239.623C264.307 239.794 264.721 240.056 265.07 240.392C265.42 240.728 265.697 241.132 265.885 241.578C266.268 242.429 266.495 243.341 266.554 244.271L266.174 244.233C266.273 243.742 266.495 243.282 266.818 242.898C267.141 242.514 267.555 242.217 268.022 242.035C268.94 241.675 269.964 241.694 270.868 242.088C271.311 242.283 271.713 242.559 272.054 242.902C272.359 243.26 272.615 243.656 272.815 244.081C273.179 244.926 273.41 245.821 273.5 246.736C273.835 250.342 273.059 253.773 272.526 257.029C271.994 260.285 271.423 263.435 270.837 266.41C270.251 269.384 269.635 272.206 269.08 274.869L268.798 274.778L268.928 274.474L269.065 274.679L251.925 274.93L252.016 274.831V274.922H251.917H247.84H247.771V274.854C247.542 273.093 247.084 271.369 246.409 269.726C246.181 269.163 245.976 268.745 245.839 268.464C245.702 268.182 245.641 268.038 245.641 268.038C245.961 268.567 246.243 269.119 246.485 269.688C247.193 271.334 247.679 273.066 247.931 274.839L247.855 274.763H251.932L251.841 274.862V274.77H251.932L269.072 274.42H269.308L269.224 274.626L269.103 274.93L268.821 274.846C269.369 272.184 269.94 269.354 270.548 266.387C271.157 263.42 271.765 260.301 272.214 257.007C272.663 253.712 273.492 250.335 273.165 246.812C273.076 245.939 272.853 245.084 272.503 244.279C272.315 243.889 272.072 243.527 271.781 243.206C271.479 242.885 271.117 242.626 270.715 242.446C269.903 242.094 268.985 242.075 268.159 242.392C267.75 242.555 267.389 242.818 267.108 243.157C266.828 243.496 266.637 243.9 266.554 244.332L266.273 245.648L266.174 244.294C266.111 243.416 265.892 242.555 265.527 241.753C265.365 241.354 265.121 240.992 264.812 240.691C264.503 240.39 264.136 240.156 263.732 240.004C262.88 239.76 261.97 239.814 261.153 240.156C260.755 240.328 260.411 240.604 260.155 240.955C259.9 241.305 259.742 241.717 259.7 242.149L259.578 243.435L259.304 242.179C259.054 240.747 258.426 239.408 257.486 238.3C257.029 237.763 256.4 237.401 255.707 237.276C255.013 237.151 254.297 237.271 253.682 237.615C252.947 238.056 252.404 238.756 252.161 239.578L251.811 240.856V239.593C251.811 237.546 251.811 235.515 251.811 233.507V230.509C251.831 230.027 251.808 229.543 251.742 229.064C251.661 228.6 251.49 228.155 251.24 227.755C250.998 227.361 250.679 227.018 250.303 226.748C249.927 226.478 249.501 226.285 249.049 226.181C248.602 226.083 248.139 226.074 247.689 226.157C247.238 226.239 246.808 226.41 246.425 226.66C245.655 227.158 245.11 227.935 244.903 228.828C244.829 229.281 244.799 229.739 244.812 230.197C244.812 230.669 244.812 231.133 244.812 231.597C244.705 239.053 244.614 246.052 244.523 252.45V252.929L244.203 252.571C242.479 250.355 240.828 248.23 239.251 246.196C238.917 245.677 238.492 245.223 237.995 244.857C237.481 244.568 236.896 244.431 236.306 244.462C235.724 244.476 235.153 244.619 234.633 244.88C234.133 245.107 233.74 245.519 233.537 246.029C233.241 246.931 233.241 247.904 233.537 248.806C233.797 249.681 234.198 250.509 234.724 251.255L237.516 255.508L241.974 262.301L244.766 266.592C245.078 267.071 245.314 267.444 245.481 267.71C245.649 267.977 245.725 268.114 245.725 268.114Z" fill="#263238"/>
<path d="M269.346 274.664H247.885C246.255 274.664 244.934 275.985 244.934 277.616V277.829C244.934 279.459 246.255 280.78 247.885 280.78H269.346C270.976 280.78 272.298 279.459 272.298 277.829V277.616C272.298 275.985 270.976 274.664 269.346 274.664Z" fill="#EBEBEB"/>
<path d="M269.346 280.78C269.346 280.78 269.567 280.78 269.963 280.674C270.549 280.535 271.079 280.222 271.484 279.776C271.77 279.461 271.983 279.087 272.108 278.681C272.238 278.197 272.264 277.691 272.184 277.197C272.089 276.596 271.803 276.042 271.369 275.616C270.935 275.19 270.375 274.915 269.772 274.831H247.916C247.548 274.831 247.183 274.905 246.844 275.048C246.505 275.191 246.198 275.401 245.941 275.664C245.684 275.928 245.483 276.241 245.349 276.584C245.216 276.927 245.152 277.293 245.162 277.661C245.143 278.14 245.245 278.616 245.459 279.046C245.669 279.463 245.98 279.821 246.364 280.087C246.748 280.353 247.193 280.518 247.657 280.567C248.585 280.567 249.567 280.567 250.48 280.567L260.316 280.605L266.95 280.666H268.753C268.962 280.662 269.171 280.677 269.377 280.712C269.17 280.736 268.962 280.749 268.753 280.75L266.95 280.788L260.316 280.849L250.48 280.894C249.544 280.894 248.623 280.894 247.619 280.894C247.093 280.845 246.588 280.664 246.15 280.367C245.713 280.07 245.357 279.668 245.116 279.198C244.869 278.716 244.749 278.179 244.766 277.638C244.758 277.086 244.892 276.542 245.154 276.056C245.427 275.561 245.826 275.148 246.312 274.859C246.797 274.57 247.351 274.416 247.916 274.413C256.467 274.413 264.181 274.413 269.818 274.504C270.474 274.597 271.081 274.902 271.548 275.371C272.014 275.841 272.315 276.45 272.405 277.106C272.478 277.636 272.437 278.176 272.283 278.688C272.116 279.196 271.817 279.65 271.415 280.003C271.014 280.356 270.526 280.596 270.001 280.697C269.788 280.759 269.568 280.787 269.346 280.78Z" fill="#263238"/>
<path d="M251.811 248.007C251.547 245.056 251.547 242.087 251.811 239.136C252.074 242.087 252.074 245.056 251.811 248.007Z" fill="#263238"/>
<path d="M259.418 247.398C259.155 245.648 259.155 243.869 259.418 242.119C259.682 243.869 259.682 245.648 259.418 247.398Z" fill="#263238"/>
<path d="M266.395 249.612C266.131 247.865 266.131 246.087 266.395 244.34C266.658 246.087 266.658 247.865 266.395 249.612Z" fill="#263238"/>
<path d="M243.047 225.572C240.202 224.412 237.461 223.012 234.854 221.388C237.698 222.548 240.439 223.948 243.047 225.572Z" fill="#263238"/>
<path d="M246.759 223.48C246.263 221.571 245.892 219.632 245.649 217.675C245.281 215.741 245.042 213.784 244.934 211.818C245.435 213.723 245.806 215.659 246.044 217.615C246.412 219.552 246.65 221.511 246.759 223.48Z" fill="#263238"/>
<path d="M251.377 224.012C252.99 221.25 254.827 218.624 256.87 216.161C255.256 218.924 253.419 221.55 251.377 224.012Z" fill="#263238"/>
</g>
<defs>
<clipPath id="clip0_1255_153">
<rect width="500" height="305.786" fill="white"/>
</clipPath>
</defs>
</svg>
