<svg width="30" height="24" viewBox="0 0 30 24" fill="none" xmlns="http://www.w3.org/2000/svg">
<path d="M3.99322 23.4124H26.0068C28.6647 23.4124 30 22.0898 30 19.4701V3.94233C30 1.32259 28.6647 0 26.0068 0H3.99322C1.34804 0 0 1.30984 0 3.94233V19.4701C0 22.1025 1.34804 23.4124 3.99322 23.4124ZM21.1233 11.6744C20.551 11.1657 19.9025 10.8987 19.2157 10.8987C18.5036 10.8987 17.8804 11.1403 17.2954 11.6617L11.5472 16.7994L9.19454 14.6629C8.66041 14.1924 8.08818 13.9381 7.4777 13.9381C6.91817 13.9381 6.37133 14.1797 5.84989 14.6502L2.04745 18.0712V4.04406C2.04745 2.72147 2.75962 2.04745 4.03137 2.04745H25.9685C27.2275 2.04745 27.9523 2.72147 27.9523 4.04406V18.0839L21.1233 11.6744ZM9.47431 11.8143C11.1149 11.8143 12.4629 10.4663 12.4629 8.81304C12.4629 7.17249 11.1149 5.81175 9.47431 5.81175C7.82111 5.81175 6.47307 7.17249 6.47307 8.81304C6.47307 10.4663 7.82111 11.8143 9.47431 11.8143Z" fill="white"/>
</svg>
