<svg width="50" height="50" viewBox="0 0 50 50" fill="none" xmlns="http://www.w3.org/2000/svg">
<path fill-rule="evenodd" clip-rule="evenodd" d="M13.9063 49.6213C11.7501 50.6116 9.2318 49.5926 8.28163 47.3451C7.98406 46.6414 7.86673 45.8692 7.94105 45.1041L9.16221 32.533L1.08505 23.1111C-0.48495 21.2796 -0.333281 18.4685 1.42382 16.8321C1.97406 16.3196 2.64241 15.9647 3.36358 15.8019L15.2116 13.1278L21.3128 2.20952C22.4989 0.0872811 25.1108 -0.63108 27.147 0.605016C27.7844 0.9921 28.315 1.54494 28.6864 2.20952L34.7877 13.1278L46.6356 15.8019C48.9384 16.3217 50.4012 18.6889 49.9024 21.0893C49.7463 21.841 49.4058 22.5376 48.9141 23.1111L40.837 32.533L42.058 45.1041C42.2955 47.5475 40.5874 49.7289 38.2431 49.9764C37.5089 50.0538 36.768 49.9315 36.0928 49.6213L24.9997 44.5262L13.9063 49.6213Z" fill="#BEBDDF"/>
</svg>
